<svg width="296" height="85" viewBox="0 0 296 85" fill="none" xmlns="http://www.w3.org/2000/svg">
<path d="M3.27411 46.9987C1.56781 52.085 1.97738 57.176 3.97413 62.1175C7.21774 68.9758 16.4046 77.4296 22.0164 82.4203L22.8648 83.1747L21.7318 83.2468C21.2156 83.2796 20.6982 83.3146 20.1805 83.3496C19.1433 83.4198 18.1036 83.4901 17.0694 83.5429L16.8488 83.5546L16.698 83.3922C10.2513 76.4519 3.29347 67.5349 0.649533 58.244C-0.342678 52.9537 -0.572686 46.6523 2.72021 42.0613C7.16433 35.8671 13.0349 31.5065 20.8887 31.5856L21.3035 31.5898L21.3539 32.0012C21.4255 32.5751 21.4954 33.1719 21.5124 33.7505L21.5253 34.22L21.0559 34.237C12.4252 34.5553 6.77707 39.2881 3.27411 46.9987Z" fill="white"/>
<path d="M14.3768 11.6949C13.766 11.8983 13.1264 12.0008 12.4798 12.0008C9.16226 12.0008 6.47313 9.3144 6.47313 6.00073C6.47313 2.68705 9.16226 0 12.4798 0C15.7968 0 18.4865 2.68705 18.4865 6.00073C18.4865 7.79854 17.6855 9.48201 16.3178 10.6163C16.7997 11.2501 17.2821 11.8836 17.7646 12.5171L17.7656 12.5184C18.8193 13.902 19.8735 15.2863 20.9221 16.6738C21.7359 17.4558 23.2791 18.8234 24.2349 17.549C24.7759 16.4253 25.1861 15.2459 25.4812 14.036C24.269 13.6544 23.4111 12.522 23.4111 11.213C23.4111 9.57818 24.7378 8.25283 26.3743 8.25283C28.0101 8.25283 29.3374 9.57876 29.3374 11.213C29.3374 12.709 28.2261 13.9458 26.7785 14.1451C26.8055 15.4358 26.9704 17.5607 27.8511 18.3556C29.3133 18.6839 30.1988 17.1311 30.7057 15.991L30.7292 15.9376L30.7656 15.8913C31.519 14.9323 32.3264 13.9727 33.2012 13.1128C32.8046 12.5981 32.5851 11.9656 32.5851 11.305C32.5851 9.67017 33.9118 8.34482 35.5483 8.34482C37.1841 8.34482 38.5108 9.67017 38.5108 11.305C38.5108 12.9399 37.1847 14.2652 35.5483 14.2652C35.3265 14.2652 35.1064 14.2406 34.8923 14.192C30.3384 18.9066 30.7045 28.2422 31.3717 34.2241L31.387 34.3577L31.3295 34.4791C30.3965 36.4498 28.0876 36.849 26.136 36.8332C24.3793 36.954 22.991 35.4305 22.0733 34.1216L21.9818 33.9914L21.9882 33.833C22.2752 25.9706 18.5803 18.1434 14.3832 11.7054L14.3768 11.6949Z" fill="white"/>
<path d="M49.5536 50.9149C43.1075 46.6475 36.7822 42.131 30.7896 37.2458L30.1172 36.6983L30.9422 36.4287C31.1916 36.3478 31.4574 35.9152 31.5747 35.703L31.8077 35.281L32.2254 35.5213C39.1762 39.5091 46.4368 43.5912 53.7413 46.8609C62.132 50.31 70.1167 49.0485 77.7035 44.355C83.2806 40.2394 88.7791 35.9228 93.9209 31.2709L94.7036 30.5617L94.713 31.6179C94.7183 32.2529 94.7253 32.8886 94.7324 33.5246C94.7464 34.801 94.7605 36.0785 94.7605 37.3531V37.5507L94.6203 37.689C88.9528 43.3046 81.7873 47.7262 74.667 51.282C66.3884 55.0904 57.9273 54.4848 49.6293 50.956L49.5894 50.939L49.5536 50.9149Z" fill="white"/>
<path d="M140.466 59.5471C140.942 48.5334 139.522 35.4362 130.664 27.7122C120.519 18.5443 108.345 15.1897 94.8222 16.9359C78.1365 19.0901 63.6112 25.8247 52.1547 38.1966L51.8573 38.5185L51.1684 37.975L51.4131 37.611C61.0183 23.2995 75.3764 15.634 92.1307 12.3983C105.9 10.3543 120.373 11.4457 131.645 20.3498C143.997 29.5393 145.078 43.943 141.971 58.0587L141.965 58.0869L141.954 58.1138L141.766 58.6494L141.763 58.6572C141.638 59.0139 141.513 59.3707 141.386 59.7264L140.33 62.6796L140.466 59.5471Z" fill="white"/>
<path d="M36.2031 66.0283V81.9759H33.5398V68.291H30.2111V81.9759H27.5484V66.0283H36.2031Z" fill="white"/>
<path fill-rule="evenodd" clip-rule="evenodd" d="M43.3122 66.0283C46.3792 66.0283 47.6637 67.5518 47.6637 70.8889C47.6637 74.2266 46.3792 75.7273 43.3122 75.7273H41.7192V81.9759H39.0565V66.0283H43.3122ZM43.2172 73.4652C44.6436 73.4652 45.0004 72.5014 45.0004 70.8889C45.0004 69.2763 44.6436 68.291 43.2172 68.291H41.7192V73.4652H43.2172Z" fill="white"/>
<path d="M55.9845 72.2107L52.18 81.9759H49.8259V66.0283H52.4892V75.7941L56.2697 66.0283H58.6478V81.9759H55.9845V72.2107Z" fill="white"/>
<path d="M72.8662 66.0283V81.9759H70.2029V72.0313L67.8963 78.5714H66.4224L64.164 72.1433V81.9759H61.5006V66.0283H63.9023L67.1834 74.4054L70.4405 66.0283H72.8662Z" fill="white"/>
<path fill-rule="evenodd" clip-rule="evenodd" d="M81.1401 66.0283L85.2539 81.9759H82.4715L81.782 78.8182H77.8595L77.193 81.9759H74.3876L78.5484 66.0283H81.1401ZM78.3823 76.5555H81.2827L79.8328 69.8813L78.3823 76.5555Z" fill="white"/>
<path fill-rule="evenodd" clip-rule="evenodd" d="M101.85 79.7138V85H99.3297V81.9759H92.4816V85H89.9614V79.7138H91.0552C91.9353 77.6083 92.4581 75.1446 92.4581 71.9862V66.0283H100.447V79.7138H101.85ZM93.766 79.7138H97.7841V68.2687H95.0023V72.6134C95.0023 75.4804 94.5505 77.7203 93.766 79.7138Z" fill="white"/>
<path d="M111.004 79.7138V81.9759H103.895V66.0283H111.004V68.291H106.558V72.8151H110.386V75.0778H106.558V79.7138H111.004Z" fill="white"/>
<path d="M121.942 66.0283V81.9759H119.278V75.0103H115.974V81.9759H113.31V66.0283H115.974V72.7483H119.278V66.0283H121.942Z" fill="white"/>
<path d="M132.213 66.0283V68.291H129.36V81.9759H126.697V68.291H123.867V66.0283H132.213Z" fill="white"/>
<path fill-rule="evenodd" clip-rule="evenodd" d="M138.632 66.0283L142.745 81.9759H139.963L139.274 78.8182H135.351L134.685 81.9759H131.879L136.04 66.0283H138.632ZM135.874 76.5555H138.775L137.324 69.8813L135.874 76.5555Z" fill="white"/>
<path d="M171.051 65.1392H169.374V57.1209L164.422 65.1392H162.901V54.0966H164.577V62.0994L169.514 54.0966H171.051V65.1392Z" fill="white"/>
<path d="M181.778 65.1392H180.101V60.3158H175.614V65.1392H173.938V54.0966H175.614V58.8114H180.101V54.0966H181.778V65.1392Z" fill="white"/>
<path d="M192.512 65.1392H190.835V60.3158H186.348V65.1392H184.672V54.0966H186.348V58.8114H190.835V54.0966H192.512V65.1392Z" fill="white"/>
<path d="M198.976 54.0035C199.587 54.0035 200.125 54.1017 200.591 54.2982C201.056 54.4843 201.47 54.7583 201.833 55.1202C202.102 55.389 202.309 55.6682 202.454 55.9577C202.609 56.2472 202.723 56.5677 202.795 56.9193C202.868 57.2605 202.909 57.6534 202.919 58.098C202.94 58.5322 202.95 59.0389 202.95 59.6179C202.95 60.1969 202.94 60.7087 202.919 61.1533C202.909 61.5876 202.868 61.9805 202.795 62.332C202.723 62.6732 202.609 62.9886 202.454 63.2781C202.309 63.5676 202.102 63.8468 201.833 64.1156C201.47 64.4775 201.056 64.7567 200.591 64.9531C200.125 65.1392 199.587 65.2323 198.976 65.2323C198.365 65.2323 197.827 65.1392 197.362 64.9531C196.896 64.7567 196.482 64.4775 196.12 64.1156C195.85 63.8468 195.638 63.5676 195.483 63.2781C195.338 62.9886 195.229 62.6732 195.157 62.332C195.085 61.9805 195.038 61.5876 195.017 61.1533C195.007 60.7087 195.002 60.1969 195.002 59.6179C195.002 59.0389 195.007 58.5322 195.017 58.098C195.038 57.6534 195.085 57.2605 195.157 56.9193C195.229 56.5677 195.338 56.2472 195.483 55.9577C195.638 55.6682 195.85 55.389 196.12 55.1202C196.482 54.7583 196.896 54.4843 197.362 54.2982C197.827 54.1017 198.365 54.0035 198.976 54.0035ZM198.976 55.5079C198.303 55.5079 197.755 55.7302 197.331 56.1748C197.196 56.3196 197.082 56.4798 196.989 56.6556C196.906 56.8314 196.839 57.0485 196.787 57.307C196.746 57.5551 196.715 57.8653 196.694 58.2376C196.684 58.6098 196.678 59.0699 196.678 59.6179C196.678 60.1659 196.684 60.626 196.694 60.9982C196.715 61.3601 196.746 61.6703 196.787 61.9288C196.839 62.1873 196.906 62.4044 196.989 62.5802C197.082 62.7456 197.196 62.9007 197.331 63.0455C197.765 63.5004 198.314 63.7279 198.976 63.7279C199.639 63.7279 200.187 63.5004 200.622 63.0455C200.756 62.9007 200.865 62.7456 200.948 62.5802C201.041 62.4044 201.108 62.1924 201.15 61.9443C201.201 61.6858 201.232 61.3704 201.243 60.9982C201.263 60.626 201.274 60.1659 201.274 59.6179C201.274 59.0699 201.263 58.6098 201.243 58.2376C201.232 57.8653 201.201 57.55 201.15 57.2915C201.108 57.033 201.041 56.821 200.948 56.6556C200.865 56.4798 200.756 56.3196 200.622 56.1748C200.197 55.7302 199.649 55.5079 198.976 55.5079Z" fill="white"/>
<path d="M209.742 54.0966C210.777 54.0966 211.59 54.3654 212.18 54.9031C212.78 55.4407 213.08 56.18 213.08 57.1209C213.08 57.4207 213.033 57.6999 212.94 57.9584C212.858 58.2065 212.744 58.434 212.599 58.6408C212.464 58.8373 212.309 59.0079 212.133 59.1526C211.957 59.287 211.776 59.3904 211.59 59.4628C211.807 59.5455 212.014 59.6644 212.211 59.8195C212.407 59.9643 212.583 60.14 212.739 60.3468C212.894 60.5536 213.018 60.7966 213.111 61.0758C213.204 61.3549 213.251 61.6703 213.251 62.0218C213.251 62.5285 213.168 62.9782 213.002 63.3711C212.837 63.7537 212.604 64.0794 212.304 64.3482C212.014 64.6067 211.662 64.8032 211.248 64.9376C210.844 65.072 210.399 65.1392 209.913 65.1392H205.442V54.0966H209.742ZM207.119 60.2693V63.6348H209.758C210.348 63.6348 210.798 63.4797 211.108 63.1695C211.419 62.849 211.574 62.4406 211.574 61.9443C211.574 61.448 211.419 61.0447 211.108 60.7346C210.798 60.4244 210.348 60.2693 209.758 60.2693H207.119ZM207.119 55.601V58.7649H209.603C210.141 58.7649 210.575 58.6305 210.907 58.3616C211.238 58.0928 211.403 57.6999 211.403 57.1829C211.403 56.6659 211.238 56.273 210.907 56.0042C210.575 55.7354 210.141 55.601 209.603 55.601H207.119Z" fill="white"/>
<path d="M223.871 65.1392H222.086L221.325 62.9214H216.963L216.202 65.1392H214.417L218.468 54.0966H219.819L223.871 65.1392ZM217.444 61.4945H220.844L219.136 56.5936L217.444 61.4945Z" fill="white"/>
<path d="M233.295 63.6348H234.568V67.6827H232.937V65.1392H225.439V54.0966H227.116V63.6348H231.618V54.0966H233.295V63.6348Z" fill="white"/>
<path d="M244.687 65.1392H243.011V57.1209L238.058 65.1392H236.537V54.0966H238.213V62.0994L243.15 54.0966H244.687V65.1392Z" fill="white"/>
<path d="M251.145 54.0035C251.755 54.0035 252.293 54.1017 252.759 54.2982C253.225 54.4843 253.639 54.7583 254.001 55.1202C254.27 55.389 254.477 55.6682 254.622 55.9577C254.777 56.2472 254.891 56.5677 254.964 56.9193C255.036 57.2605 255.077 57.6534 255.088 58.098C255.109 58.5322 255.119 59.0389 255.119 59.6179C255.119 60.1969 255.109 60.7087 255.088 61.1533C255.077 61.5876 255.036 61.9805 254.964 62.332C254.891 62.6732 254.777 62.9886 254.622 63.2781C254.477 63.5676 254.27 63.8468 254.001 64.1156C253.639 64.4775 253.225 64.7567 252.759 64.9531C252.293 65.1392 251.755 65.2323 251.145 65.2323C250.534 65.2323 249.996 65.1392 249.53 64.9531C249.064 64.7567 248.65 64.4775 248.288 64.1156C248.019 63.8468 247.807 63.5676 247.651 63.2781C247.507 62.9886 247.398 62.6732 247.325 62.332C247.253 61.9805 247.206 61.5876 247.186 61.1533C247.175 60.7087 247.17 60.1969 247.17 59.6179C247.17 59.0389 247.175 58.5322 247.186 58.098C247.206 57.6534 247.253 57.2605 247.325 56.9193C247.398 56.5677 247.507 56.2472 247.651 55.9577C247.807 55.6682 248.019 55.389 248.288 55.1202C248.65 54.7583 249.064 54.4843 249.53 54.2982C249.996 54.1017 250.534 54.0035 251.145 54.0035ZM251.145 55.5079C250.472 55.5079 249.923 55.7302 249.499 56.1748C249.364 56.3196 249.251 56.4798 249.157 56.6556C249.075 56.8314 249.007 57.0485 248.956 57.307C248.914 57.5551 248.883 57.8653 248.862 58.2376C248.852 58.6098 248.847 59.0699 248.847 59.6179C248.847 60.1659 248.852 60.626 248.862 60.9982C248.883 61.3601 248.914 61.6703 248.956 61.9288C249.007 62.1873 249.075 62.4044 249.157 62.5802C249.251 62.7456 249.364 62.9007 249.499 63.0455C249.934 63.5004 250.482 63.7279 251.145 63.7279C251.807 63.7279 252.355 63.5004 252.79 63.0455C252.925 62.9007 253.033 62.7456 253.116 62.5802C253.209 62.4044 253.277 62.1924 253.318 61.9443C253.37 61.6858 253.401 61.3704 253.411 60.9982C253.432 60.626 253.442 60.1659 253.442 59.6179C253.442 59.0699 253.432 58.6098 253.411 58.2376C253.401 57.8653 253.37 57.55 253.318 57.2915C253.277 57.033 253.209 56.821 253.116 56.6556C253.033 56.4798 252.925 56.3196 252.79 56.1748C252.366 55.7302 251.817 55.5079 251.145 55.5079Z" fill="white"/>
<path d="M265.45 65.1392H263.774V60.3158H259.287V65.1392H257.61V54.0966H259.287V58.8114H263.774V54.0966H265.45V65.1392Z" fill="white"/>
<path d="M276.184 65.1392H274.508V60.3158H270.021V65.1392H268.344V54.0966H270.021V58.8114H274.508V54.0966H276.184V65.1392Z" fill="white"/>
<path d="M287.213 65.1392H285.428L284.667 62.9214H280.305L279.544 65.1392H277.758L281.81 54.0966H283.161L287.213 65.1392ZM280.786 61.4945H284.186L282.478 56.5936L280.786 61.4945Z" fill="white"/>
<path d="M296 65.1392H294.323V60.7966H292.134L289.992 65.1392H288.005L290.411 60.4864C289.759 60.2589 289.242 59.8815 288.859 59.3542C288.476 58.8269 288.284 58.191 288.284 57.4466C288.284 56.9399 288.367 56.4798 288.533 56.0663C288.709 55.6527 288.952 55.3011 289.262 55.0116C289.573 54.7118 289.94 54.4843 290.365 54.3292C290.799 54.1741 291.28 54.0966 291.808 54.0966H296V65.1392ZM291.917 55.5855C291.306 55.5855 290.825 55.7509 290.473 56.0818C290.132 56.4023 289.961 56.8521 289.961 57.4311C289.961 57.9997 290.132 58.4547 290.473 58.7959C290.825 59.1268 291.306 59.2922 291.917 59.2922H294.323V55.5855H291.917Z" fill="white"/>
<path d="M166.471 71.0638C167.496 71.0638 168.36 71.3585 169.064 71.9478C169.768 72.5268 170.218 73.3643 170.415 74.4603H168.707C168.583 73.8916 168.334 73.4367 167.962 73.0955C167.589 72.744 167.092 72.5682 166.471 72.5682C165.799 72.5682 165.255 72.7905 164.841 73.2351C164.696 73.3798 164.582 73.5401 164.5 73.7159C164.417 73.8916 164.35 74.1088 164.298 74.3673C164.246 74.6154 164.21 74.9256 164.189 75.2978C164.179 75.6701 164.174 76.1302 164.174 76.6782C164.174 77.2262 164.179 77.6863 164.189 78.0585C164.21 78.4307 164.246 78.7461 164.298 79.0046C164.35 79.2527 164.417 79.4647 164.5 79.6404C164.582 79.8162 164.696 79.9765 164.841 80.1212C165.255 80.5658 165.799 80.7881 166.471 80.7881C167.092 80.7881 167.589 80.6175 167.962 80.2763C168.334 79.9248 168.583 79.4647 168.707 78.896H170.415C170.218 79.992 169.763 80.8347 169.048 81.424C168.345 82.003 167.486 82.2925 166.471 82.2925C165.861 82.2925 165.322 82.1995 164.857 82.0134C164.391 81.8169 163.977 81.5378 163.615 81.1759C163.346 80.907 163.133 80.6279 162.978 80.3384C162.833 80.0489 162.725 79.7335 162.652 79.3923C162.58 79.0407 162.533 78.6478 162.512 78.2136C162.502 77.769 162.497 77.2572 162.497 76.6782C162.497 76.0991 162.502 75.5925 162.512 75.1582C162.533 74.7136 162.58 74.3207 162.652 73.9795C162.725 73.628 162.833 73.3075 162.978 73.018C163.133 72.7284 163.346 72.4493 163.615 72.1805C163.977 71.8186 164.391 71.5446 164.857 71.3585C165.322 71.162 165.861 71.0638 166.471 71.0638Z" fill="white"/>
<path d="M179.433 72.6612H176.39V82.1995H174.714V72.6612H171.671V71.1568H179.433V72.6612Z" fill="white"/>
<path d="M184.907 71.0638C185.518 71.0638 186.056 71.162 186.521 71.3585C186.987 71.5446 187.401 71.8186 187.763 72.1805C188.033 72.4493 188.24 72.7284 188.384 73.018C188.54 73.3075 188.653 73.628 188.726 73.9795C188.798 74.3207 188.84 74.7136 188.85 75.1582C188.871 75.5925 188.881 76.0991 188.881 76.6782C188.881 77.2572 188.871 77.769 188.85 78.2136C188.84 78.6478 188.798 79.0407 188.726 79.3923C188.653 79.7335 188.54 80.0489 188.384 80.3384C188.24 80.6279 188.033 80.907 187.763 81.1759C187.401 81.5378 186.987 81.8169 186.521 82.0134C186.056 82.1995 185.518 82.2925 184.907 82.2925C184.296 82.2925 183.758 82.1995 183.292 82.0134C182.827 81.8169 182.413 81.5378 182.05 81.1759C181.781 80.907 181.569 80.6279 181.414 80.3384C181.269 80.0489 181.16 79.7335 181.088 79.3923C181.015 79.0407 180.969 78.6478 180.948 78.2136C180.938 77.769 180.933 77.2572 180.933 76.6782C180.933 76.0991 180.938 75.5925 180.948 75.1582C180.969 74.7136 181.015 74.3207 181.088 73.9795C181.16 73.628 181.269 73.3075 181.414 73.018C181.569 72.7284 181.781 72.4493 182.05 72.1805C182.413 71.8186 182.827 71.5446 183.292 71.3585C183.758 71.162 184.296 71.0638 184.907 71.0638ZM184.907 72.5682C184.234 72.5682 183.686 72.7905 183.261 73.2351C183.127 73.3798 183.013 73.5401 182.92 73.7159C182.837 73.8916 182.77 74.1088 182.718 74.3673C182.676 74.6154 182.645 74.9256 182.625 75.2978C182.614 75.6701 182.609 76.1302 182.609 76.6782C182.609 77.2262 182.614 77.6863 182.625 78.0585C182.645 78.4204 182.676 78.7306 182.718 78.9891C182.77 79.2475 182.837 79.4647 182.92 79.6404C183.013 79.8059 183.127 79.961 183.261 80.1057C183.696 80.5607 184.244 80.7881 184.907 80.7881C185.569 80.7881 186.118 80.5607 186.552 80.1057C186.687 79.961 186.796 79.8059 186.878 79.6404C186.972 79.4647 187.039 79.2527 187.08 79.0046C187.132 78.7461 187.163 78.4307 187.173 78.0585C187.194 77.6863 187.205 77.2262 187.205 76.6782C187.205 76.1302 187.194 75.6701 187.173 75.2978C187.163 74.9256 187.132 74.6102 187.08 74.3518C187.039 74.0933 186.972 73.8813 186.878 73.7159C186.796 73.5401 186.687 73.3798 186.552 73.2351C186.128 72.7905 185.58 72.5682 184.907 72.5682Z" fill="white"/>
<path d="M201.122 82.1995H199.446V74.817L196.899 80.1988H195.657L193.049 74.817V82.1995H191.373V71.1568H193.049L196.278 78.0275L199.446 71.1568H201.122V82.1995Z" fill="white"/>
<path d="M212.152 82.1995H210.366L209.606 79.9816H205.243L204.483 82.1995H202.697L206.749 71.1568H208.1L212.152 82.1995ZM205.725 78.5548H209.124L207.417 73.6538L205.725 78.5548Z" fill="white"/>
<path d="M220.504 72.6612H217.461V82.1995H215.785V72.6612H212.742V71.1568H220.504V72.6612Z" fill="white"/>
<path d="M225.978 71.0638C226.588 71.0638 227.126 71.162 227.592 71.3585C228.058 71.5446 228.472 71.8186 228.834 72.1805C229.103 72.4493 229.31 72.7284 229.455 73.018C229.61 73.3075 229.724 73.628 229.797 73.9795C229.869 74.3207 229.91 74.7136 229.921 75.1582C229.942 75.5925 229.952 76.0991 229.952 76.6782C229.952 77.2572 229.942 77.769 229.921 78.2136C229.91 78.6478 229.869 79.0407 229.797 79.3923C229.724 79.7335 229.61 80.0489 229.455 80.3384C229.31 80.6279 229.103 80.907 228.834 81.1759C228.472 81.5378 228.058 81.8169 227.592 82.0134C227.126 82.1995 226.588 82.2925 225.978 82.2925C225.367 82.2925 224.829 82.1995 224.363 82.0134C223.897 81.8169 223.483 81.5378 223.121 81.1759C222.852 80.907 222.64 80.6279 222.484 80.3384C222.34 80.0489 222.231 79.7335 222.158 79.3923C222.086 79.0407 222.039 78.6478 222.019 78.2136C222.008 77.769 222.003 77.2572 222.003 76.6782C222.003 76.0991 222.008 75.5925 222.019 75.1582C222.039 74.7136 222.086 74.3207 222.158 73.9795C222.231 73.628 222.34 73.3075 222.484 73.018C222.64 72.7284 222.852 72.4493 223.121 72.1805C223.483 71.8186 223.897 71.5446 224.363 71.3585C224.829 71.162 225.367 71.0638 225.978 71.0638ZM225.978 72.5682C225.305 72.5682 224.756 72.7905 224.332 73.2351C224.197 73.3798 224.084 73.5401 223.99 73.7159C223.908 73.8916 223.84 74.1088 223.789 74.3673C223.747 74.6154 223.716 74.9256 223.695 75.2978C223.685 75.6701 223.68 76.1302 223.68 76.6782C223.68 77.2262 223.685 77.6863 223.695 78.0585C223.716 78.4204 223.747 78.7306 223.789 78.9891C223.84 79.2475 223.908 79.4647 223.99 79.6404C224.084 79.8059 224.197 79.961 224.332 80.1057C224.767 80.5607 225.315 80.7881 225.978 80.7881C226.64 80.7881 227.188 80.5607 227.623 80.1057C227.758 79.961 227.866 79.8059 227.949 79.6404C228.042 79.4647 228.11 79.2527 228.151 79.0046C228.203 78.7461 228.234 78.4307 228.244 78.0585C228.265 77.6863 228.275 77.2262 228.275 76.6782C228.275 76.1302 228.265 75.6701 228.244 75.2978C228.234 74.9256 228.203 74.6102 228.151 74.3518C228.11 74.0933 228.042 73.8813 227.949 73.7159C227.866 73.5401 227.758 73.3798 227.623 73.2351C227.199 72.7905 226.65 72.5682 225.978 72.5682Z" fill="white"/>
<path d="M240.082 82.1995H238.405V72.6612H235.16V76.1508C235.16 77.3089 235.088 78.2756 234.943 79.0511C234.808 79.8266 234.601 80.4469 234.322 80.9122C234.042 81.3775 233.696 81.7084 233.282 81.9048C232.868 82.1013 232.381 82.1995 231.822 82.1995H231.124V80.6951H231.419C231.729 80.6951 232.014 80.633 232.273 80.509C232.531 80.3849 232.754 80.1522 232.94 79.811C233.126 79.4595 233.271 78.9735 233.375 78.3532C233.478 77.7328 233.53 76.9211 233.53 75.9182V71.1568H240.082V82.1995Z" fill="white"/>
<path d="M246.536 71.0638C247.146 71.0638 247.684 71.162 248.15 71.3585C248.616 71.5446 249.03 71.8186 249.392 72.1805C249.661 72.4493 249.868 72.7284 250.013 73.018C250.168 73.3075 250.282 73.628 250.355 73.9795C250.427 74.3207 250.469 74.7136 250.479 75.1582C250.5 75.5925 250.51 76.0991 250.51 76.6782C250.51 77.2572 250.5 77.769 250.479 78.2136C250.469 78.6478 250.427 79.0407 250.355 79.3923C250.282 79.7335 250.168 80.0489 250.013 80.3384C249.868 80.6279 249.661 80.907 249.392 81.1759C249.03 81.5378 248.616 81.8169 248.15 82.0134C247.684 82.1995 247.146 82.2925 246.536 82.2925C245.925 82.2925 245.387 82.1995 244.921 82.0134C244.455 81.8169 244.041 81.5378 243.679 81.1759C243.41 80.907 243.198 80.6279 243.043 80.3384C242.898 80.0489 242.789 79.7335 242.717 79.3923C242.644 79.0407 242.598 78.6478 242.577 78.2136C242.566 77.769 242.561 77.2572 242.561 76.6782C242.561 76.0991 242.566 75.5925 242.577 75.1582C242.598 74.7136 242.644 74.3207 242.717 73.9795C242.789 73.628 242.898 73.3075 243.043 73.018C243.198 72.7284 243.41 72.4493 243.679 72.1805C244.041 71.8186 244.455 71.5446 244.921 71.3585C245.387 71.162 245.925 71.0638 246.536 71.0638ZM246.536 72.5682C245.863 72.5682 245.314 72.7905 244.89 73.2351C244.755 73.3798 244.642 73.5401 244.548 73.7159C244.466 73.8916 244.398 74.1088 244.347 74.3673C244.305 74.6154 244.274 74.9256 244.254 75.2978C244.243 75.6701 244.238 76.1302 244.238 76.6782C244.238 77.2262 244.243 77.6863 244.254 78.0585C244.274 78.4204 244.305 78.7306 244.347 78.9891C244.398 79.2475 244.466 79.4647 244.548 79.6404C244.642 79.8059 244.755 79.961 244.89 80.1057C245.325 80.5607 245.873 80.7881 246.536 80.7881C247.198 80.7881 247.747 80.5607 248.181 80.1057C248.316 79.961 248.424 79.8059 248.507 79.6404C248.6 79.4647 248.668 79.2527 248.709 79.0046C248.761 78.7461 248.792 78.4307 248.802 78.0585C248.823 77.6863 248.833 77.2262 248.833 76.6782C248.833 76.1302 248.823 75.6701 248.802 75.2978C248.792 74.9256 248.761 74.6102 248.709 74.3518C248.668 74.0933 248.6 73.8813 248.507 73.7159C248.424 73.5401 248.316 73.3798 248.181 73.2351C247.757 72.7905 247.208 72.5682 246.536 72.5682Z" fill="white"/>
<path d="M259.801 72.6612H254.678V82.1995H253.001V71.1568H259.801V72.6612Z" fill="white"/>
<path d="M269.854 82.1995H268.178V74.1812L263.225 82.1995H261.704V71.1568H263.38V79.1597L268.317 71.1568H269.854V82.1995Z" fill="white"/>
<path d="M279.96 82.1995H278.283V77.8569H276.094L273.952 82.1995H271.965L274.371 77.5467C273.719 77.3192 273.201 76.9418 272.818 76.4145C272.436 75.8872 272.244 75.2513 272.244 74.5069C272.244 74.0002 272.327 73.5401 272.492 73.1265C272.668 72.7129 272.912 72.3614 273.222 72.0719C273.533 71.772 273.9 71.5446 274.324 71.3895C274.759 71.2344 275.24 71.1568 275.768 71.1568H279.96V82.1995ZM275.877 72.6457C275.266 72.6457 274.785 72.8112 274.433 73.142C274.091 73.4626 273.921 73.9123 273.921 74.4913C273.921 75.06 274.091 75.515 274.433 75.8562C274.785 76.187 275.266 76.3525 275.877 76.3525H278.283V72.6457H275.877Z" fill="white"/>
</svg>
