<svg width="194" height="55" viewBox="0 0 194 55" fill="none" xmlns="http://www.w3.org/2000/svg">
<path fill-rule="evenodd" clip-rule="evenodd" d="M2.10897 30.3035C1.00988 33.583 1.2737 36.8655 2.55987 40.0517C4.6492 44.4737 10.5668 49.9245 14.1815 53.1424L14.7281 53.6288L13.9982 53.6753C13.6657 53.6964 13.3324 53.719 12.9989 53.7416L12.9983 53.7416H12.9983C12.3302 53.7869 11.6612 53.8322 10.995 53.8662L10.8529 53.8737L10.7558 53.7691C6.60322 49.2941 2.12144 43.5447 0.418387 37.5541C-0.220731 34.1431 -0.368887 30.0801 1.75218 27.12C4.6148 23.1262 8.39622 20.3145 13.4551 20.3656L13.7223 20.3682L13.7548 20.6335C13.8009 21.0035 13.8459 21.3884 13.8569 21.7614L13.8652 22.0641L13.5628 22.0751C8.00351 22.2803 4.36535 25.3319 2.10897 30.3035ZM9.2606 7.54053C8.86715 7.67168 8.45518 7.73781 8.03868 7.73781C5.90173 7.73781 4.16957 6.00567 4.16957 3.86911C4.16957 1.73254 5.90173 0 8.03868 0C10.1752 0 11.9078 1.73254 11.9078 3.86911C11.9078 5.02829 11.3919 6.11374 10.5109 6.84508C10.8213 7.25375 11.132 7.6622 11.4428 8.07067L11.4434 8.07152L11.4437 8.07184C12.1224 8.96398 12.8012 9.85616 13.4767 10.7508C14.0009 11.255 14.9949 12.1368 15.6106 11.3151C15.959 10.5906 16.2232 9.83014 16.4134 9.05005C15.6325 8.804 15.0799 8.07383 15.0799 7.22986C15.0799 6.17575 15.9345 5.3212 16.9886 5.3212C18.0423 5.3212 18.8972 6.17613 18.8972 7.22986C18.8972 8.1944 18.1814 8.99186 17.249 9.12036C17.2664 9.95261 17.3726 11.3227 17.9399 11.8352C18.8818 12.0469 19.4521 11.0457 19.7786 10.3105L19.7938 10.2761L19.8172 10.2463C20.3025 9.62795 20.8225 9.00923 21.3861 8.45477C21.1306 8.12293 20.9892 7.71513 20.9892 7.28917C20.9892 6.23506 21.8438 5.38051 22.8979 5.38051C23.9516 5.38051 24.8062 6.23506 24.8062 7.28917C24.8062 8.34328 23.952 9.19783 22.8979 9.19783C22.755 9.19783 22.6133 9.18196 22.4753 9.15059C19.542 12.1905 19.7779 18.2098 20.2076 22.0668L20.2174 22.1529L20.1804 22.2312C19.5795 23.5019 18.0922 23.7593 16.8351 23.7491C15.7035 23.8269 14.8093 22.8446 14.2182 22.0007L14.1592 21.9167L14.1634 21.8146C14.3482 16.7451 11.9682 11.6984 9.26475 7.54732L9.2606 7.54053ZM31.9192 32.8286C27.767 30.0771 23.6927 27.165 19.8327 24.0151L19.3995 23.6621L19.931 23.4883C20.0916 23.4361 20.2628 23.1571 20.3384 23.0203L20.4884 22.7482L20.7575 22.9032C25.2348 25.4744 29.9116 28.1064 34.6167 30.2146C40.0214 32.4385 45.1646 31.6251 50.0515 28.5989C53.644 25.9453 57.1858 23.1621 60.4978 20.1626L61.0019 19.7053L61.008 20.3864C61.0114 20.7958 61.0159 21.2057 61.0204 21.6158C61.0295 22.4387 61.0386 23.2624 61.0386 24.0843V24.2117L60.9483 24.3008C57.2976 27.9216 52.6821 30.7726 48.0956 33.0652C42.7631 35.5208 37.313 35.1303 31.968 32.8551L31.9423 32.8441L31.9192 32.8286ZM90.4789 38.3944C90.7858 31.293 89.8707 22.8483 84.1652 17.868C77.6304 11.9569 69.789 9.79389 61.0783 10.9198C50.3305 12.3088 40.9742 16.6511 33.5947 24.6282L33.4031 24.8357L32.9594 24.4852L33.117 24.2506C39.3041 15.0229 48.5526 10.0804 59.3446 7.99407C68.2137 6.67615 77.5366 7.37987 84.7971 13.121C92.7534 19.0461 93.45 28.3332 91.4483 37.4347L91.4445 37.4529L91.4377 37.4702L91.3164 37.8156L91.3147 37.8206C91.2339 38.0506 91.1532 38.2806 91.0715 38.51L90.3915 40.4141L90.4789 38.3944ZM23.3197 42.5732V52.8558H21.6041V44.0322H19.46V52.8558H17.7449V42.5732H23.3197ZM27.8989 42.5732C29.8745 42.5732 30.7018 43.5555 30.7018 45.7072C30.7018 47.8593 29.8745 48.8269 27.8989 48.8269H26.8728V52.8558H25.1577V42.5732H27.8989ZM27.8377 47.3684C28.7565 47.3684 28.9863 46.747 28.9863 45.7072C28.9863 44.6675 28.7565 44.0322 27.8377 44.0322H26.8728V47.3684H27.8377ZM36.0616 46.5595L33.611 52.8558H32.0946V42.5732H33.8101V48.87L36.2453 42.5732H37.7771V52.8558H36.0616V46.5595ZM46.9357 42.5732V52.8558H45.2202V46.4439L43.7344 50.6607H42.785L41.3303 46.5161V52.8558H39.6147V42.5732H41.1617L43.2752 47.9746L45.3732 42.5732H46.9357ZM52.2652 42.5732L54.915 52.8558H53.1228L52.6787 50.8198H50.152L49.7227 52.8558H47.9157L50.5958 42.5732H52.2652ZM50.4888 49.3609H52.357L51.4231 45.0575L50.4888 49.3609ZM65.6054 51.3973V54.8057H63.9817V52.8558H59.5706V54.8057H57.9473V51.3973H58.6518C59.2188 50.0397 59.5555 48.4512 59.5555 46.4148V42.5732H64.7017V51.3973H65.6054ZM60.398 51.3973H62.9862V44.0178H61.1943V46.8192C61.1943 48.6677 60.9033 50.1119 60.398 51.3973ZM71.5019 51.3973V52.8558H66.9222V42.5732H71.5019V44.0322H68.6377V46.9492H71.1035V48.4081H68.6377V51.3973H71.5019ZM78.5469 42.5732V52.8558H76.8314V48.3646H74.7027V52.8558H72.9872V42.5732H74.7027V46.9061H76.8314V42.5732H78.5469ZM85.1633 42.5732V44.0322H83.3253V52.8558H81.6102V44.0322H79.7873V42.5732H85.1633ZM89.2977 42.5732L91.9472 52.8558H90.1553L89.7112 50.8198H87.1842L86.7552 52.8558H84.9479L87.6283 42.5732H89.2977ZM87.5213 49.3609H89.3896L88.4553 45.0575L87.5213 49.3609Z" fill="#2B308B"/>
<path d="M110.18 42H109.1V36.83L105.91 42H104.93V34.88H106.01V40.04L109.19 34.88H110.18V42ZM117.089 42H116.009V38.89H113.119V42H112.039V34.88H113.119V37.92H116.009V34.88H117.089V42ZM124.003 42H122.923V38.89H120.033V42H118.953V34.88H120.033V37.92H122.923V34.88H124.003V42ZM128.168 34.82C128.561 34.82 128.908 34.8833 129.208 35.01C129.508 35.13 129.774 35.3067 130.008 35.54C130.181 35.7133 130.314 35.8933 130.408 36.08C130.508 36.2667 130.581 36.4733 130.628 36.7C130.674 36.92 130.701 37.1733 130.708 37.46C130.721 37.74 130.728 38.0667 130.728 38.44C130.728 38.8133 130.721 39.1433 130.708 39.43C130.701 39.71 130.674 39.9633 130.628 40.19C130.581 40.41 130.508 40.6133 130.408 40.8C130.314 40.9867 130.181 41.1667 130.008 41.34C129.774 41.5733 129.508 41.7533 129.208 41.88C128.908 42 128.561 42.06 128.168 42.06C127.774 42.06 127.428 42 127.128 41.88C126.828 41.7533 126.561 41.5733 126.328 41.34C126.154 41.1667 126.018 40.9867 125.918 40.8C125.824 40.6133 125.754 40.41 125.708 40.19C125.661 39.9633 125.631 39.71 125.618 39.43C125.611 39.1433 125.608 38.8133 125.608 38.44C125.608 38.0667 125.611 37.74 125.618 37.46C125.631 37.1733 125.661 36.92 125.708 36.7C125.754 36.4733 125.824 36.2667 125.918 36.08C126.018 35.8933 126.154 35.7133 126.328 35.54C126.561 35.3067 126.828 35.13 127.128 35.01C127.428 34.8833 127.774 34.82 128.168 34.82ZM128.168 35.79C127.734 35.79 127.381 35.9333 127.108 36.22C127.021 36.3133 126.948 36.4167 126.888 36.53C126.834 36.6433 126.791 36.7833 126.758 36.95C126.731 37.11 126.711 37.31 126.698 37.55C126.691 37.79 126.688 38.0867 126.688 38.44C126.688 38.7933 126.691 39.09 126.698 39.33C126.711 39.5633 126.731 39.7633 126.758 39.93C126.791 40.0967 126.834 40.2367 126.888 40.35C126.948 40.4567 127.021 40.5567 127.108 40.65C127.388 40.9433 127.741 41.09 128.168 41.09C128.594 41.09 128.948 40.9433 129.228 40.65C129.314 40.5567 129.384 40.4567 129.438 40.35C129.498 40.2367 129.541 40.1 129.568 39.94C129.601 39.7733 129.621 39.57 129.628 39.33C129.641 39.09 129.648 38.7933 129.648 38.44C129.648 38.0867 129.641 37.79 129.628 37.55C129.621 37.31 129.601 37.1067 129.568 36.94C129.541 36.7733 129.498 36.6367 129.438 36.53C129.384 36.4167 129.314 36.3133 129.228 36.22C128.954 35.9333 128.601 35.79 128.168 35.79ZM135.102 34.88C135.769 34.88 136.292 35.0533 136.672 35.4C137.059 35.7467 137.252 36.2233 137.252 36.83C137.252 37.0233 137.222 37.2033 137.162 37.37C137.109 37.53 137.036 37.6767 136.942 37.81C136.856 37.9367 136.756 38.0467 136.642 38.14C136.529 38.2267 136.412 38.2933 136.292 38.34C136.432 38.3933 136.566 38.47 136.692 38.57C136.819 38.6633 136.932 38.7767 137.032 38.91C137.132 39.0433 137.212 39.2 137.272 39.38C137.332 39.56 137.362 39.7633 137.362 39.99C137.362 40.3167 137.309 40.6067 137.202 40.86C137.096 41.1067 136.946 41.3167 136.752 41.49C136.566 41.6567 136.339 41.7833 136.072 41.87C135.812 41.9567 135.526 42 135.212 42H132.332V34.88H135.102ZM133.412 38.86V41.03H135.112C135.492 41.03 135.782 40.93 135.982 40.73C136.182 40.5233 136.282 40.26 136.282 39.94C136.282 39.62 136.182 39.36 135.982 39.16C135.782 38.96 135.492 38.86 135.112 38.86H133.412ZM133.412 35.85V37.89H135.012C135.359 37.89 135.639 37.8033 135.852 37.63C136.066 37.4567 136.172 37.2033 136.172 36.87C136.172 36.5367 136.066 36.2833 135.852 36.11C135.639 35.9367 135.359 35.85 135.012 35.85H133.412ZM144.203 42H143.053L142.563 40.57H139.753L139.263 42H138.113L140.723 34.88H141.593L144.203 42ZM140.063 39.65H142.253L141.153 36.49L140.063 39.65ZM150.273 41.03H151.093V43.64H150.043V42H145.213V34.88H146.293V41.03H149.193V34.88H150.273V41.03ZM157.612 42H156.532V36.83L153.342 42H152.362V34.88H153.442V40.04L156.622 34.88H157.612V42ZM161.771 34.82C162.164 34.82 162.511 34.8833 162.811 35.01C163.111 35.13 163.378 35.3067 163.611 35.54C163.784 35.7133 163.918 35.8933 164.011 36.08C164.111 36.2667 164.184 36.4733 164.231 36.7C164.278 36.92 164.304 37.1733 164.311 37.46C164.324 37.74 164.331 38.0667 164.331 38.44C164.331 38.8133 164.324 39.1433 164.311 39.43C164.304 39.71 164.278 39.9633 164.231 40.19C164.184 40.41 164.111 40.6133 164.011 40.8C163.918 40.9867 163.784 41.1667 163.611 41.34C163.378 41.5733 163.111 41.7533 162.811 41.88C162.511 42 162.164 42.06 161.771 42.06C161.378 42.06 161.031 42 160.731 41.88C160.431 41.7533 160.164 41.5733 159.931 41.34C159.758 41.1667 159.621 40.9867 159.521 40.8C159.428 40.6133 159.358 40.41 159.311 40.19C159.264 39.9633 159.234 39.71 159.221 39.43C159.214 39.1433 159.211 38.8133 159.211 38.44C159.211 38.0667 159.214 37.74 159.221 37.46C159.234 37.1733 159.264 36.92 159.311 36.7C159.358 36.4733 159.428 36.2667 159.521 36.08C159.621 35.8933 159.758 35.7133 159.931 35.54C160.164 35.3067 160.431 35.13 160.731 35.01C161.031 34.8833 161.378 34.82 161.771 34.82ZM161.771 35.79C161.338 35.79 160.984 35.9333 160.711 36.22C160.624 36.3133 160.551 36.4167 160.491 36.53C160.438 36.6433 160.394 36.7833 160.361 36.95C160.334 37.11 160.314 37.31 160.301 37.55C160.294 37.79 160.291 38.0867 160.291 38.44C160.291 38.7933 160.294 39.09 160.301 39.33C160.314 39.5633 160.334 39.7633 160.361 39.93C160.394 40.0967 160.438 40.2367 160.491 40.35C160.551 40.4567 160.624 40.5567 160.711 40.65C160.991 40.9433 161.344 41.09 161.771 41.09C162.198 41.09 162.551 40.9433 162.831 40.65C162.918 40.5567 162.988 40.4567 163.041 40.35C163.101 40.2367 163.144 40.1 163.171 39.94C163.204 39.7733 163.224 39.57 163.231 39.33C163.244 39.09 163.251 38.7933 163.251 38.44C163.251 38.0867 163.244 37.79 163.231 37.55C163.224 37.31 163.204 37.1067 163.171 36.94C163.144 36.7733 163.101 36.6367 163.041 36.53C162.988 36.4167 162.918 36.3133 162.831 36.22C162.558 35.9333 162.204 35.79 161.771 35.79ZM170.986 42H169.906V38.89H167.016V42H165.936V34.88H167.016V37.92H169.906V34.88H170.986V42ZM177.9 42H176.82V38.89H173.93V42H172.85V34.88H173.93V37.92H176.82V34.88H177.9V42ZM185.004 42H183.854L183.364 40.57H180.554L180.064 42H178.914L181.524 34.88H182.394L185.004 42ZM180.864 39.65H183.054L181.954 36.49L180.864 39.65ZM190.664 42H189.584V39.2H188.174L186.794 42H185.514L187.064 39C186.644 38.8533 186.311 38.61 186.064 38.27C185.817 37.93 185.694 37.52 185.694 37.04C185.694 36.7133 185.747 36.4167 185.854 36.15C185.967 35.8833 186.124 35.6567 186.324 35.47C186.524 35.2767 186.761 35.13 187.034 35.03C187.314 34.93 187.624 34.88 187.964 34.88H190.664V42ZM188.034 35.84C187.641 35.84 187.331 35.9467 187.104 36.16C186.884 36.3667 186.774 36.6567 186.774 37.03C186.774 37.3967 186.884 37.69 187.104 37.91C187.331 38.1233 187.641 38.23 188.034 38.23H189.584V35.84H188.034ZM107.23 45.82C107.89 45.82 108.447 46.01 108.9 46.39C109.353 46.7633 109.643 47.3033 109.77 48.01H108.67C108.59 47.6433 108.43 47.35 108.19 47.13C107.95 46.9033 107.63 46.79 107.23 46.79C106.797 46.79 106.447 46.9333 106.18 47.22C106.087 47.3133 106.013 47.4167 105.96 47.53C105.907 47.6433 105.863 47.7833 105.83 47.95C105.797 48.11 105.773 48.31 105.76 48.55C105.753 48.79 105.75 49.0867 105.75 49.44C105.75 49.7933 105.753 50.09 105.76 50.33C105.773 50.57 105.797 50.7733 105.83 50.94C105.863 51.1 105.907 51.2367 105.96 51.35C106.013 51.4633 106.087 51.5667 106.18 51.66C106.447 51.9467 106.797 52.09 107.23 52.09C107.63 52.09 107.95 51.98 108.19 51.76C108.43 51.5333 108.59 51.2367 108.67 50.87H109.77C109.643 51.5767 109.35 52.12 108.89 52.5C108.437 52.8733 107.883 53.06 107.23 53.06C106.837 53.06 106.49 53 106.19 52.88C105.89 52.7533 105.623 52.5733 105.39 52.34C105.217 52.1667 105.08 51.9867 104.98 51.8C104.887 51.6133 104.817 51.41 104.77 51.19C104.723 50.9633 104.693 50.71 104.68 50.43C104.673 50.1433 104.67 49.8133 104.67 49.44C104.67 49.0667 104.673 48.74 104.68 48.46C104.693 48.1733 104.723 47.92 104.77 47.7C104.817 47.4733 104.887 47.2667 104.98 47.08C105.08 46.8933 105.217 46.7133 105.39 46.54C105.623 46.3067 105.89 46.13 106.19 46.01C106.49 45.8833 106.837 45.82 107.23 45.82ZM115.579 46.85H113.619V53H112.539V46.85H110.579V45.88H115.579V46.85ZM119.105 45.82C119.498 45.82 119.845 45.8833 120.145 46.01C120.445 46.13 120.712 46.3067 120.945 46.54C121.118 46.7133 121.252 46.8933 121.345 47.08C121.445 47.2667 121.518 47.4733 121.565 47.7C121.612 47.92 121.638 48.1733 121.645 48.46C121.658 48.74 121.665 49.0667 121.665 49.44C121.665 49.8133 121.658 50.1433 121.645 50.43C121.638 50.71 121.612 50.9633 121.565 51.19C121.518 51.41 121.445 51.6133 121.345 51.8C121.252 51.9867 121.118 52.1667 120.945 52.34C120.712 52.5733 120.445 52.7533 120.145 52.88C119.845 53 119.498 53.06 119.105 53.06C118.712 53.06 118.365 53 118.065 52.88C117.765 52.7533 117.498 52.5733 117.265 52.34C117.092 52.1667 116.955 51.9867 116.855 51.8C116.762 51.6133 116.692 51.41 116.645 51.19C116.598 50.9633 116.568 50.71 116.555 50.43C116.548 50.1433 116.545 49.8133 116.545 49.44C116.545 49.0667 116.548 48.74 116.555 48.46C116.568 48.1733 116.598 47.92 116.645 47.7C116.692 47.4733 116.762 47.2667 116.855 47.08C116.955 46.8933 117.092 46.7133 117.265 46.54C117.498 46.3067 117.765 46.13 118.065 46.01C118.365 45.8833 118.712 45.82 119.105 45.82ZM119.105 46.79C118.672 46.79 118.318 46.9333 118.045 47.22C117.958 47.3133 117.885 47.4167 117.825 47.53C117.772 47.6433 117.728 47.7833 117.695 47.95C117.668 48.11 117.648 48.31 117.635 48.55C117.628 48.79 117.625 49.0867 117.625 49.44C117.625 49.7933 117.628 50.09 117.635 50.33C117.648 50.5633 117.668 50.7633 117.695 50.93C117.728 51.0967 117.772 51.2367 117.825 51.35C117.885 51.4567 117.958 51.5567 118.045 51.65C118.325 51.9433 118.678 52.09 119.105 52.09C119.532 52.09 119.885 51.9433 120.165 51.65C120.252 51.5567 120.322 51.4567 120.375 51.35C120.435 51.2367 120.478 51.1 120.505 50.94C120.538 50.7733 120.558 50.57 120.565 50.33C120.578 50.09 120.585 49.7933 120.585 49.44C120.585 49.0867 120.578 48.79 120.565 48.55C120.558 48.31 120.538 48.1067 120.505 47.94C120.478 47.7733 120.435 47.6367 120.375 47.53C120.322 47.4167 120.252 47.3133 120.165 47.22C119.892 46.9333 119.538 46.79 119.105 46.79ZM129.55 53H128.47V48.24L126.83 51.71H126.03L124.35 48.24V53H123.27V45.88H124.35L126.43 50.31L128.47 45.88H129.55V53ZM136.654 53H135.504L135.014 51.57H132.204L131.714 53H130.564L133.174 45.88H134.044L136.654 53ZM132.514 50.65H134.704L133.604 47.49L132.514 50.65ZM142.034 46.85H140.074V53H138.994V46.85H137.034V45.88H142.034V46.85ZM145.56 45.82C145.953 45.82 146.3 45.8833 146.6 46.01C146.9 46.13 147.167 46.3067 147.4 46.54C147.573 46.7133 147.707 46.8933 147.8 47.08C147.9 47.2667 147.973 47.4733 148.02 47.7C148.067 47.92 148.093 48.1733 148.1 48.46C148.113 48.74 148.12 49.0667 148.12 49.44C148.12 49.8133 148.113 50.1433 148.1 50.43C148.093 50.71 148.067 50.9633 148.02 51.19C147.973 51.41 147.9 51.6133 147.8 51.8C147.707 51.9867 147.573 52.1667 147.4 52.34C147.167 52.5733 146.9 52.7533 146.6 52.88C146.3 53 145.953 53.06 145.56 53.06C145.167 53.06 144.82 53 144.52 52.88C144.22 52.7533 143.953 52.5733 143.72 52.34C143.547 52.1667 143.41 51.9867 143.31 51.8C143.217 51.6133 143.147 51.41 143.1 51.19C143.053 50.9633 143.023 50.71 143.01 50.43C143.003 50.1433 143 49.8133 143 49.44C143 49.0667 143.003 48.74 143.01 48.46C143.023 48.1733 143.053 47.92 143.1 47.7C143.147 47.4733 143.217 47.2667 143.31 47.08C143.41 46.8933 143.547 46.7133 143.72 46.54C143.953 46.3067 144.22 46.13 144.52 46.01C144.82 45.8833 145.167 45.82 145.56 45.82ZM145.56 46.79C145.127 46.79 144.773 46.9333 144.5 47.22C144.413 47.3133 144.34 47.4167 144.28 47.53C144.227 47.6433 144.183 47.7833 144.15 47.95C144.123 48.11 144.103 48.31 144.09 48.55C144.083 48.79 144.08 49.0867 144.08 49.44C144.08 49.7933 144.083 50.09 144.09 50.33C144.103 50.5633 144.123 50.7633 144.15 50.93C144.183 51.0967 144.227 51.2367 144.28 51.35C144.34 51.4567 144.413 51.5567 144.5 51.65C144.78 51.9433 145.133 52.09 145.56 52.09C145.987 52.09 146.34 51.9433 146.62 51.65C146.707 51.5567 146.777 51.4567 146.83 51.35C146.89 51.2367 146.933 51.1 146.96 50.94C146.993 50.7733 147.013 50.57 147.02 50.33C147.033 50.09 147.04 49.7933 147.04 49.44C147.04 49.0867 147.033 48.79 147.02 48.55C147.013 48.31 146.993 48.1067 146.96 47.94C146.933 47.7733 146.89 47.6367 146.83 47.53C146.777 47.4167 146.707 47.3133 146.62 47.22C146.347 46.9333 145.993 46.79 145.56 46.79ZM154.645 53H153.565V46.85H151.475V49.1C151.475 49.8467 151.428 50.47 151.335 50.97C151.248 51.47 151.115 51.87 150.935 52.17C150.755 52.47 150.532 52.6833 150.265 52.81C149.998 52.9367 149.685 53 149.325 53H148.875V52.03H149.065C149.265 52.03 149.448 51.99 149.615 51.91C149.782 51.83 149.925 51.68 150.045 51.46C150.165 51.2333 150.258 50.92 150.325 50.52C150.392 50.12 150.425 49.5967 150.425 48.95V45.88H154.645V53ZM158.802 45.82C159.196 45.82 159.542 45.8833 159.842 46.01C160.142 46.13 160.409 46.3067 160.642 46.54C160.816 46.7133 160.949 46.8933 161.042 47.08C161.142 47.2667 161.216 47.4733 161.262 47.7C161.309 47.92 161.336 48.1733 161.342 48.46C161.356 48.74 161.362 49.0667 161.362 49.44C161.362 49.8133 161.356 50.1433 161.342 50.43C161.336 50.71 161.309 50.9633 161.262 51.19C161.216 51.41 161.142 51.6133 161.042 51.8C160.949 51.9867 160.816 52.1667 160.642 52.34C160.409 52.5733 160.142 52.7533 159.842 52.88C159.542 53 159.196 53.06 158.802 53.06C158.409 53.06 158.062 53 157.762 52.88C157.462 52.7533 157.196 52.5733 156.962 52.34C156.789 52.1667 156.652 51.9867 156.552 51.8C156.459 51.6133 156.389 51.41 156.342 51.19C156.296 50.9633 156.266 50.71 156.252 50.43C156.246 50.1433 156.242 49.8133 156.242 49.44C156.242 49.0667 156.246 48.74 156.252 48.46C156.266 48.1733 156.296 47.92 156.342 47.7C156.389 47.4733 156.459 47.2667 156.552 47.08C156.652 46.8933 156.789 46.7133 156.962 46.54C157.196 46.3067 157.462 46.13 157.762 46.01C158.062 45.8833 158.409 45.82 158.802 45.82ZM158.802 46.79C158.369 46.79 158.016 46.9333 157.742 47.22C157.656 47.3133 157.582 47.4167 157.522 47.53C157.469 47.6433 157.426 47.7833 157.392 47.95C157.366 48.11 157.346 48.31 157.332 48.55C157.326 48.79 157.322 49.0867 157.322 49.44C157.322 49.7933 157.326 50.09 157.332 50.33C157.346 50.5633 157.366 50.7633 157.392 50.93C157.426 51.0967 157.469 51.2367 157.522 51.35C157.582 51.4567 157.656 51.5567 157.742 51.65C158.022 51.9433 158.376 52.09 158.802 52.09C159.229 52.09 159.582 51.9433 159.862 51.65C159.949 51.5567 160.019 51.4567 160.072 51.35C160.132 51.2367 160.176 51.1 160.202 50.94C160.236 50.7733 160.256 50.57 160.262 50.33C160.276 50.09 160.282 49.7933 160.282 49.44C160.282 49.0867 160.276 48.79 160.262 48.55C160.256 48.31 160.236 48.1067 160.202 47.94C160.176 47.7733 160.132 47.6367 160.072 47.53C160.019 47.4167 159.949 47.3133 159.862 47.22C159.589 46.9333 159.236 46.79 158.802 46.79ZM167.347 46.85H164.047V53H162.967V45.88H167.347V46.85ZM173.823 53H172.743V47.83L169.553 53H168.573V45.88H169.653V51.04L172.833 45.88H173.823V53ZM180.332 53H179.252V50.2H177.842L176.462 53H175.182L176.732 50C176.312 49.8533 175.979 49.61 175.732 49.27C175.485 48.93 175.362 48.52 175.362 48.04C175.362 47.7133 175.415 47.4167 175.522 47.15C175.635 46.8833 175.792 46.6567 175.992 46.47C176.192 46.2767 176.429 46.13 176.702 46.03C176.982 45.93 177.292 45.88 177.632 45.88H180.332V53ZM177.702 46.84C177.309 46.84 176.999 46.9467 176.772 47.16C176.552 47.3667 176.442 47.6567 176.442 48.03C176.442 48.3967 176.552 48.69 176.772 48.91C176.999 49.1233 177.309 49.23 177.702 49.23H179.252V46.84H177.702Z" fill="#2B308B"/>
</svg>
