<svg width="68" height="60" viewBox="0 0 68 60" fill="none" xmlns="http://www.w3.org/2000/svg">
<path d="M67.4656 21.714L51.953 18.416C50.6908 18.1718 49.3879 17.9682 48.1257 17.8053C45.8049 13.0009 41.0819 9.6622 35.7889 9.09218C32.4095 8.72574 29.0709 9.45861 26.1801 11.1687C25.4879 11.5758 24.6329 11.6166 23.9407 11.2908L22.1492 10.4765L22.0271 10.3951C21.9457 10.3543 21.8642 10.3136 21.8642 10.3544C19.3399 9.21432 16.5712 8.80718 13.8432 9.09218C6.59588 9.86578 0.814313 15.6881 0.0814336 22.9355C-0.0814284 24.5234 -7.37757e-06 26.1112 0.325717 27.6991C0.529294 28.5949 0.773587 29.5313 1.14003 30.3864C3.62367 36.5344 6.31091 46.9983 7.6138 53.6757L8.06166 55.9557C8.30595 57.7065 9.52744 59.1315 11.2375 59.6608C11.6854 59.783 12.1332 59.8644 12.5811 59.8644C13.884 59.8644 15.1055 59.3351 15.9605 58.3579C16.4898 57.7472 16.8562 56.9329 16.9784 56.0371C17.752 50.6627 21.2942 40.2395 24.9586 40.2395C28.5823 40.2395 32.0431 50.6627 32.8167 55.9964C32.9389 56.8922 33.3053 57.7065 33.8346 58.3172C34.9746 59.6201 36.8475 60.1494 38.5169 59.6201C40.1862 59.1315 41.4484 57.7065 41.6519 56.0371L42.3441 52.332C44.0134 43.5782 45.9678 36.6566 48.4922 30.5085C48.6958 30.0199 48.8586 29.5314 48.9807 29.0428C49.51 29.1242 50.0393 29.2463 50.6094 29.3278L66.3662 31.2007C66.407 31.2007 66.407 31.2007 66.4477 31.2007C66.7734 31.2007 67.0991 30.9564 67.1398 30.5899C67.1806 30.2235 66.9363 29.8571 66.5291 29.8164L50.7722 27.9434C47.8407 27.5363 44.9499 26.8034 42.1405 25.8262L36.8068 23.9126L37.2547 21.2661L37.6618 18.8639H43.077C45.9678 18.8639 48.8179 19.1489 51.668 19.7189L67.1806 23.0169C67.547 23.0983 67.9134 22.854 67.9949 22.4876C68.0356 22.1212 67.832 21.7954 67.4656 21.714ZM35.5039 23.424L30.1294 21.3475C29.6816 21.1847 29.4373 20.7368 29.5187 20.2889C29.6001 19.8411 29.9666 19.4746 30.4145 19.4339L36.2775 18.9453L36.1147 20.0039L35.5039 23.424ZM37.0918 17.5203C37.0511 17.5203 37.0511 17.5203 37.0918 17.5203C37.0511 17.5203 37.0511 17.5203 37.0511 17.5203L30.2923 18.0903C29.4373 18.1717 28.7044 18.7011 28.338 19.4339L25.9358 19.1896C23.3707 18.9046 20.8056 19.4339 18.5255 20.6554L14.3726 22.9355C14.0468 23.0983 13.9247 23.5462 14.0876 23.8719C14.2097 24.1162 14.454 24.2383 14.6983 24.2383C14.8205 24.2383 14.9019 24.1976 15.024 24.1569L19.177 21.8769C21.2128 20.7775 23.4928 20.3296 25.7729 20.5739L28.1344 20.8182C28.2566 21.6325 28.7859 22.3654 29.6002 22.6504L35.7889 25.0119L41.6519 27.1291C43.6063 27.8213 45.5606 28.3506 47.5964 28.7985C47.4743 29.2057 47.3521 29.6128 47.1892 29.9792C44.6242 36.168 42.6699 43.2118 40.9598 52.047L40.2269 55.7928C40.064 56.9736 39.209 57.9508 38.0283 58.3172C36.8475 58.6837 35.5446 58.3172 34.7303 57.4215C34.3639 57.0143 34.1196 56.4443 34.0382 55.8335C33.3867 51.3141 30.0073 38.9366 24.8364 38.9366C19.6248 38.9366 16.1641 51.3956 15.5126 55.915C15.4312 56.5257 15.1869 57.0958 14.8204 57.5029C14.0468 58.3987 12.7032 58.7651 11.5225 58.3986C10.3417 58.0322 9.48669 57.055 9.32383 55.7928L8.87597 53.4721C7.57308 46.7133 4.84514 36.168 2.36149 29.9385C2.03577 29.1649 1.79145 28.3099 1.62859 27.4956C1.34358 26.0705 1.26215 24.6048 1.42502 23.139C2.11718 16.5431 7.36949 11.2094 14.0061 10.5172C16.4898 10.2729 19.0141 10.6393 21.2942 11.6572C21.3349 11.6979 21.3756 11.698 21.4164 11.698L23.33 12.5937C24.4293 13.123 25.7729 13.0416 26.8315 12.3901C29.478 10.8429 32.5317 10.1915 35.5853 10.5172C40.1455 11.0058 44.217 13.7337 46.4564 17.7239C45.3164 17.6424 44.1763 17.561 43.0363 17.561L37.0918 17.5203Z" fill="#5A81FA"/>
<path d="M12.5404 19.5559C12.6625 19.5559 12.7847 19.5152 12.9068 19.4338C13.2326 19.2302 13.314 18.823 13.1104 18.4973L11.6854 16.2579C11.4818 15.9322 11.0746 15.8508 10.7489 16.0543C10.4232 16.2579 10.3418 16.6651 10.5453 16.9908L11.9704 19.2302C12.0925 19.4338 12.3368 19.5559 12.5404 19.5559Z" fill="#5A81FA"/>
<path d="M9.73095 22.4469C9.77167 22.4469 9.81239 22.4469 9.89382 22.4469C10.2195 22.4469 10.5045 22.2433 10.5453 21.9176C10.6267 21.5512 10.3824 21.1847 10.016 21.1033L7.41019 20.5333C7.04375 20.4518 6.67731 20.6962 6.59588 21.0626C6.51445 21.429 6.75871 21.7955 7.12515 21.8769L9.73095 22.4469Z" fill="#5A81FA"/>
<path d="M9.69026 25.1342L7.4509 26.5592C7.12518 26.7628 7.04375 27.1699 7.24733 27.4957C7.36947 27.6992 7.61378 27.8214 7.81735 27.8214C7.9395 27.8214 8.06166 27.7807 8.1838 27.6992L10.4232 26.2742C10.7489 26.0706 10.8303 25.6635 10.6267 25.3378C10.4232 25.012 9.97526 24.9306 9.69026 25.1342Z" fill="#5A81FA"/>
<path d="M13.0696 27.699C12.7032 27.6176 12.3368 27.8619 12.2553 28.2284L11.6853 30.8342C11.6039 31.2006 11.8481 31.567 12.2146 31.6485C12.2553 31.6485 12.296 31.6485 12.3775 31.6485C12.7032 31.6485 12.9882 31.4449 13.0289 31.1192L13.5989 28.5133C13.6803 28.1469 13.4768 27.7805 13.0696 27.699Z" fill="#5A81FA"/>
<path d="M17.752 30.8342C17.8741 31.0378 18.1184 31.1599 18.3219 31.1599C18.4441 31.1599 18.5662 31.1192 18.6884 31.0378C19.0141 30.8342 19.0955 30.427 18.892 30.1013L17.4669 27.8619C17.2633 27.5362 16.8562 27.4548 16.5305 27.6584C16.2048 27.8619 16.1233 28.2691 16.3269 28.5948L17.752 30.8342Z" fill="#5A81FA"/>
<path d="M19.3806 25.989L21.9863 26.559C22.0271 26.559 22.0678 26.559 22.1492 26.559C22.4749 26.559 22.7599 26.3554 22.8007 26.0297C22.8821 25.6632 22.6378 25.2968 22.2714 25.2154L19.6656 24.6453C19.2991 24.5639 18.9327 24.8082 18.8513 25.1747C18.8106 25.5411 19.0141 25.9075 19.3806 25.989Z" fill="#5A81FA"/>
<path d="M17.2226 15.4439C16.8562 15.3625 16.4897 15.6068 16.4083 15.9732L15.8383 18.579C15.7568 18.9454 16.0011 19.3119 16.3676 19.3933C16.4083 19.3933 16.449 19.3933 16.5305 19.3933C16.8562 19.3933 17.1412 19.1897 17.1819 18.864L17.7519 16.2582C17.7926 15.8918 17.589 15.5253 17.2226 15.4439Z" fill="#5A81FA"/>
</svg>
