<svg width="68" height="60" viewBox="0 0 68 60" fill="none" xmlns="http://www.w3.org/2000/svg">
<path d="M28.0067 25.1602L30.7207 26.1717C30.7961 26.2092 30.8715 26.2092 30.9469 26.2092C31.2108 26.2092 31.4369 26.0593 31.55 25.7971C31.663 25.4599 31.5123 25.1228 31.173 24.9729L28.4591 23.9615C28.1198 23.8491 27.7806 23.9989 27.6298 24.3361C27.5167 24.6732 27.6675 25.0104 28.0067 25.1602Z" fill="#5A81FA"/>
<path d="M34.1885 22.2007C34.2639 22.4629 34.5278 22.6502 34.7916 22.6502C34.8293 22.6502 34.9047 22.6502 34.9801 22.6128C35.3193 22.5378 35.5078 22.1632 35.4324 21.8261L34.7539 19.4659C34.6408 19.1288 34.3016 18.9415 33.9624 19.0164C33.6231 19.0913 33.4346 19.4659 33.51 19.8031L34.1885 22.2007Z" fill="#5A81FA"/>
<path d="M32.0022 23.9614C32.1153 24.0738 32.3038 24.1487 32.4546 24.1487C32.6054 24.1487 32.7561 24.0738 32.9069 23.9614C33.1708 23.7366 33.1707 23.3245 32.9445 23.0623L30.2683 20.2527C30.0422 19.9904 29.6275 19.9904 29.3636 20.2152C29.0998 20.44 29.0998 20.852 29.326 21.1143L32.0022 23.9614Z" fill="#5A81FA"/>
<path d="M67.2461 36.7734H59.8958C60.6874 35.1251 60.9889 33.2894 60.6497 31.4163C60.0466 27.82 57.1064 24.8604 53.4878 24.2611C50.8492 23.8115 48.2107 24.5233 46.2129 26.2091C45.6098 25.6846 44.9313 25.2725 44.2151 24.9728C44.1774 24.9354 44.1398 24.9354 44.1398 24.9354H44.102C42.7073 24.336 41.1619 24.0737 39.6165 24.2236C35.5078 24.6357 32.1907 27.8574 31.7007 31.9408C31.5876 32.9897 31.663 34.0387 31.8892 35.0502C31.7384 34.9752 31.5876 34.9003 31.4368 34.8628C31.3991 34.8628 31.3615 34.8254 31.3238 34.8254C31.0976 34.713 30.8338 34.6381 30.5699 34.5632C30.5322 34.5632 30.5321 34.5631 30.4944 34.5257C30.2306 34.4508 29.9668 34.3758 29.7029 34.3384C29.6652 34.3384 29.6652 34.3384 29.6275 34.3384C29.326 34.3009 29.0621 34.226 28.7606 34.226C28.7606 34.226 28.7606 34.226 28.7606 34.1885C28.7229 33.8888 28.6852 33.5891 28.6475 33.3269C28.6098 33.1396 28.5721 32.9523 28.4967 32.7275C28.459 32.6151 28.459 32.5402 28.4213 32.4278C28.3836 32.2405 28.3082 32.0532 28.2328 31.8659C28.2328 31.8284 28.2328 31.8284 28.2328 31.7909C28.2328 31.7909 28.2328 31.7535 28.1952 31.7535C28.1575 31.6786 28.1575 31.6036 28.1198 31.5287C28.0444 31.3414 27.9312 31.1166 27.8559 30.9293C27.8182 30.8544 27.7805 30.7795 27.7428 30.7046C27.6298 30.5172 27.5544 30.3674 27.4413 30.1801C27.3659 30.1052 27.3282 29.9928 27.2528 29.9178C27.1397 29.768 27.0266 29.6181 26.9135 29.4683C26.8381 29.3559 26.7627 29.2435 26.6497 29.1686C26.5366 29.0562 26.4235 28.9064 26.3105 28.794C26.1974 28.6816 26.0842 28.5692 25.9712 28.4568C25.8581 28.3444 25.745 28.2695 25.6319 28.1571C25.5942 28.1196 25.5189 28.0822 25.4812 28.0073C25.3681 27.9323 25.2927 27.8574 25.1796 27.7825C25.1042 27.745 25.0666 27.6701 24.9912 27.6327C24.9535 27.5952 24.9158 27.5952 24.8781 27.5577C24.8404 27.5203 24.8027 27.5203 24.765 27.4828C24.5765 27.3704 24.4258 27.258 24.2373 27.1831C24.1996 27.1831 24.1619 27.1456 24.1242 27.1456C23.9357 27.0333 23.7472 26.9583 23.5588 26.8834C23.5211 26.8459 23.4834 26.8459 23.4457 26.8459C23.2572 26.771 23.1065 26.6961 22.918 26.6212C22.8426 26.5837 22.8049 26.5837 22.7295 26.5462C22.5787 26.5088 22.428 26.4339 22.2395 26.3964C22.1641 26.3589 22.0887 26.3589 21.9756 26.3215C21.8626 26.284 21.7118 26.2465 21.5987 26.2465C21.4856 26.2091 21.3725 26.2091 21.2594 26.1716C21.1463 26.1716 21.071 26.1342 20.9579 26.1342C20.3925 26.0592 19.7894 26.0592 19.224 26.0967H19.1862C19.0355 26.0967 18.8847 26.1342 18.7716 26.1342C18.6586 26.1342 18.5832 26.1716 18.4701 26.1716C18.357 26.1716 18.2439 26.2091 18.1309 26.2465C18.0178 26.284 17.867 26.284 17.7539 26.3215C17.6785 26.3589 17.5654 26.3589 17.49 26.3964C17.3392 26.4339 17.1885 26.4713 17.0377 26.5462C16.9623 26.5837 16.9246 26.5837 16.8492 26.6212C16.6607 26.6961 16.51 26.7336 16.3215 26.8085C16.2838 26.8459 16.2461 26.8459 16.1707 26.8834C15.9822 26.9583 15.7938 27.0707 15.643 27.1456C15.6053 27.1831 15.5676 27.1831 15.5299 27.2206C15.3415 27.3329 15.1907 27.4079 15.0399 27.5203C15.0022 27.5577 14.9268 27.5952 14.8891 27.6327C14.8514 27.6701 14.8137 27.6701 14.776 27.7076C14.7383 27.745 14.663 27.7825 14.6253 27.82C14.5122 27.8949 14.3991 27.9698 14.286 28.0447C14.2106 28.0822 14.1729 28.1571 14.0975 28.1946C13.9844 28.307 13.8714 28.3819 13.7583 28.4943C13.6452 28.6067 13.4945 28.719 13.3814 28.8689C13.2683 28.9813 13.1553 29.1311 13.0422 29.2435C12.9668 29.3559 12.8536 29.4683 12.7782 29.5807C12.6652 29.7305 12.5521 29.8804 12.439 30.0677C12.3636 30.1801 12.3259 30.255 12.2506 30.3674C12.1375 30.5547 12.0244 30.742 11.949 30.9293C11.9113 31.0042 11.8736 31.1166 11.8359 31.1916C11.7228 31.3789 11.6474 31.6036 11.5721 31.7909C11.5344 31.8659 11.4967 31.9783 11.4967 32.0532C11.4213 32.278 11.3459 32.4653 11.3082 32.69C11.2705 32.8024 11.2705 32.9523 11.2328 33.0647C11.1951 33.252 11.1574 33.4393 11.1197 33.6266C11.082 33.9263 11.0444 34.2634 11.0444 34.6006L9.42351 36.9607C9.31043 36.8483 9.15967 36.736 8.9712 36.736H0.64078C0.301534 36.736 0 36.9982 0 37.3728C0 37.71 0.26384 38.0097 0.64078 38.0097H8.70736L3.09089 46.1015C2.60087 46.7758 2.52548 47.5625 2.90242 48.2743C3.27936 48.9861 4.07097 49.3982 4.82485 49.3607C5.2018 49.3233 5.54106 49.2109 5.88031 48.9486C8.25503 47.1879 15.4922 42.9921 17.6785 45.1649C19.827 47.3003 15.643 54.4556 13.8714 56.7782C13.6076 57.1154 13.4944 57.4525 13.4568 57.8272C13.4191 58.6139 13.8337 59.3631 14.5499 59.7377C14.8515 59.8876 15.1907 60 15.5299 60C15.9446 60 16.3969 59.8501 16.7361 59.5879L27.3659 52.3202C27.8936 51.9456 28.5721 51.7208 29.326 51.6084C29.6275 51.571 29.8914 51.4961 30.1552 51.4586C30.1929 51.4586 30.2306 51.4211 30.2683 51.4211C30.5322 51.3462 30.7584 51.2713 31.0222 51.1963C31.0976 51.1589 31.2107 51.1214 31.286 51.084C31.4745 51.009 31.663 50.9341 31.8515 50.8592C31.9645 50.8217 32.0399 50.7468 32.153 50.7093C32.3038 50.6344 32.4923 50.522 32.6431 50.4471C32.7562 50.3722 32.8315 50.3347 32.9445 50.2598C33.0953 50.1474 33.2462 50.035 33.397 49.9226C33.4723 49.8477 33.5854 49.7728 33.6608 49.7353C33.8116 49.623 33.9623 49.4731 34.1131 49.3232C34.1885 49.2483 34.2639 49.2109 34.3393 49.1359C34.5655 48.9112 34.7539 48.6864 34.9424 48.4616C35.2062 48.1619 35.3947 47.8622 35.6209 47.5251C35.6209 47.4876 35.6586 47.4876 35.6586 47.4501L36.6386 52.6948C36.7517 53.519 37.2794 54.1184 38.071 54.3806C38.8625 54.6054 39.6918 54.3806 40.2195 53.8187C40.4457 53.5565 40.6341 53.1819 40.6718 52.8072C41.0865 49.8852 43.235 41.8683 46.3259 41.8683C49.3791 41.8683 51.49 49.8477 51.9047 52.7698C51.9801 53.1819 52.1308 53.519 52.357 53.8187C52.8847 54.4181 53.714 54.6429 54.5056 54.4181C55.2595 54.1933 55.8248 53.5565 55.9379 52.7698L58.275 40.1825C58.3881 39.5456 58.6896 38.9088 59.1419 38.2719C59.1796 38.2344 59.2173 38.1595 59.255 38.1221H67.3592C67.6985 38.1221 68 37.8598 68 37.4852C67.8869 37.0731 67.6231 36.7734 67.2461 36.7734ZM53.0732 52.545C53.0732 52.4326 51.2262 40.5571 46.2506 40.5571C41.3503 40.5571 39.3902 52.4701 39.3525 52.5825C39.3525 52.6948 39.3149 52.8447 39.2018 52.9571C39.0133 53.1819 38.6741 53.2568 38.3725 53.1819C38.2218 53.1444 37.8825 52.9945 37.8071 52.5075L36.4878 45.3897C37.2794 42.6924 36.7517 39.6955 34.9047 37.4103C34.5278 36.9233 34.0754 36.5112 33.5854 36.0991C32.9823 34.8254 32.7561 33.4393 32.9069 32.0157C33.3215 28.5317 36.1486 25.7221 39.6918 25.3849C41.0111 25.2351 42.3681 25.4973 43.5743 26.0218C43.989 26.284 45.949 27.4453 47.4945 29.0562C47.6076 29.1686 47.796 29.2435 47.9468 29.2435C48.0976 29.2435 48.2483 29.1686 48.3991 29.0562C48.663 28.8314 48.663 28.4193 48.4368 28.1571C48.0222 27.745 47.6075 27.3329 47.1929 26.9958C48.8891 25.6472 51.0754 25.0478 53.2993 25.4224C56.3902 25.9468 58.9158 28.4568 59.4435 31.5662C59.7827 33.6266 59.2927 35.687 58.0488 37.3728C57.4834 38.1595 57.1065 38.9462 56.9557 39.7704L54.6186 52.3951C54.5432 52.8447 54.204 52.9945 54.0532 53.032C53.7517 53.1069 53.4124 53.032 53.224 52.8072C53.1109 52.8072 53.0732 52.6574 53.0732 52.545ZM14.7007 57.977C14.7007 57.8272 14.776 57.6773 14.8514 57.6024C14.9268 57.49 22.051 47.8248 18.5454 44.3408C17.867 43.6665 16.9247 43.4042 15.8692 43.4042C11.5721 43.4042 5.20178 47.9371 5.08869 48.0121C5.01331 48.087 4.86253 48.1619 4.71175 48.1619C4.4102 48.1994 4.10865 48.0121 3.95787 47.7124C3.88249 47.5625 3.76938 47.2254 4.03324 46.8507L12.1375 35.2C12.2128 35.0876 12.2506 34.9752 12.2506 34.8628C12.2506 34.5632 12.2882 34.2635 12.3259 34.0012C12.3259 33.8514 12.3636 33.7015 12.4013 33.5517C12.439 33.4393 12.4391 33.2894 12.4768 33.177C12.5145 32.9897 12.5898 32.8399 12.6275 32.6526C12.6652 32.5776 12.6652 32.4653 12.7029 32.3904C12.7783 32.203 12.8537 32.0532 12.9291 31.8659C12.9668 31.7909 13.0045 31.716 13.0422 31.6036C13.1176 31.4538 13.2306 31.2665 13.306 31.1166C13.3437 31.0417 13.4191 30.9293 13.4568 30.8544C13.5321 30.7045 13.6452 30.5922 13.7583 30.4423C13.8337 30.3299 13.9091 30.255 13.9845 30.1426C14.0976 30.0302 14.1729 29.9178 14.286 29.8055C14.3991 29.6931 14.5122 29.5807 14.5876 29.4683C14.7007 29.3934 14.7761 29.281 14.8891 29.2061C15.0399 29.0937 15.1907 28.9813 15.3415 28.8314C15.4168 28.794 15.4545 28.7565 15.5299 28.6816C15.7938 28.4943 16.0576 28.3444 16.3592 28.1946C16.4346 28.1571 16.51 28.1197 16.5854 28.0822C16.8492 27.9324 17.1508 27.82 17.4524 27.745C17.5277 27.7076 17.6031 27.7076 17.6785 27.6701C17.98 27.5952 18.3193 27.5203 18.6208 27.4453C18.6585 27.4453 18.6962 27.4453 18.7339 27.4453C19.4501 27.333 20.1663 27.333 20.8448 27.4453C20.8825 27.4453 20.9202 27.4453 20.9956 27.4453C21.2971 27.4828 21.6364 27.5577 21.9379 27.6701C22.0133 27.7076 22.0887 27.7076 22.1641 27.745C22.4657 27.82 22.7295 27.9324 22.9934 28.0822C23.0687 28.1197 23.1818 28.1571 23.2572 28.1946C23.5211 28.3444 23.8226 28.4943 24.0865 28.6816C24.1618 28.719 24.1995 28.7565 24.2749 28.8314C24.4257 28.9438 24.5765 29.0562 24.7273 29.1686C24.8404 29.2435 24.9157 29.3559 25.0288 29.4308C25.1419 29.5432 25.255 29.6556 25.3681 29.768C25.4812 29.8804 25.5566 29.9928 25.6697 30.1051C25.7451 30.2175 25.8204 30.2925 25.8958 30.4048C26.0089 30.5172 26.0843 30.6671 26.1974 30.8169C26.2727 30.8919 26.3104 31.0043 26.3481 31.0792C26.4235 31.229 26.5366 31.3789 26.612 31.5662C26.6497 31.6411 26.6873 31.716 26.725 31.8284C26.8004 31.9783 26.8381 32.1281 26.9135 32.2779C27.0266 32.7275 27.5543 34.9378 27.5166 37.1855C27.5166 37.5227 27.7805 37.8224 28.1198 37.8224C28.459 37.8224 28.7606 37.5601 28.7606 37.223C28.7606 36.6236 28.7605 36.0616 28.7228 35.4997C28.7605 35.4997 28.7605 35.4997 28.7982 35.4997C28.8359 35.4997 28.9113 35.4997 28.949 35.5372C29.1752 35.5746 29.4014 35.6121 29.6275 35.6495C29.6652 35.6495 29.6652 35.6495 29.7029 35.6495C30.2306 35.7619 30.7207 35.9492 31.2107 36.2115H31.2483C31.4745 36.3239 31.7007 36.4737 31.9268 36.5861C31.9268 36.5861 31.9269 36.5861 31.9646 36.5861C32.6431 37.0356 33.2838 37.5976 33.8115 38.2344C35.4324 40.2199 35.847 42.8423 35.1308 45.1649C35.1308 45.1649 35.1308 45.1649 35.1308 45.2024C34.9047 45.8767 34.6031 46.5136 34.2262 47.113C34.2262 47.113 34.2262 47.1504 34.1885 47.1504C34.0754 47.3378 33.9247 47.5251 33.7739 47.7124C33.6231 47.8997 33.4346 48.1245 33.2461 48.3118C33.2084 48.3492 33.133 48.4242 33.0576 48.4616C32.9069 48.574 32.7938 48.7239 32.6431 48.8362C32.5677 48.8737 32.4923 48.9486 32.4169 48.9861C32.2661 49.0985 32.1153 49.2109 31.9646 49.2858C31.8892 49.3232 31.8137 49.3607 31.7384 49.4356C31.5876 49.548 31.3991 49.6229 31.2483 49.6979C31.1729 49.7353 31.1352 49.7728 31.0598 49.8103C30.8337 49.9227 30.6076 49.9976 30.3814 50.11H30.3437C30.0798 50.1849 29.8159 50.2598 29.5521 50.3347C29.5144 50.3347 29.4768 50.3347 29.4391 50.3722C28.9114 50.4846 28.4213 50.5595 27.8559 50.5595C27.7428 50.5595 27.592 50.597 27.5166 50.6719L15.7938 58.6888C15.4168 58.951 15.0777 58.8386 14.9269 58.7637C14.8515 58.5764 14.7007 58.2767 14.7007 57.977Z" fill="#5A81FA"/>
</svg>
