<svg width="68" height="60" viewBox="0 0 68 60" fill="none" xmlns="http://www.w3.org/2000/svg">
<path d="M50.9029 22.9985C50.1543 15.7264 44.39 9.886 37.166 9.09473C33.7598 8.71793 30.3911 9.47153 27.4716 11.2425C26.6855 11.7323 25.7498 11.77 25.076 11.3178C24.552 11.0164 24.028 10.715 23.5039 10.4889L23.3917 10.4135C23.3168 10.3758 23.2045 10.3382 23.2419 10.3758C20.7341 9.24546 17.9643 8.83097 15.2693 9.09473C8.04525 9.886 2.28098 15.7264 1.53237 22.9985C1.38265 24.5811 1.45753 26.2013 1.75697 27.7839C2.01898 29.178 2.50558 30.4968 3.14189 31.7779C3.36648 32.2677 3.62847 32.7199 3.85306 33.2097C4.00278 33.5112 4.37708 33.6619 4.67653 33.5112C4.97597 33.3604 5.12568 32.9837 4.97596 32.6822C4.75138 32.1924 4.48938 31.7025 4.2648 31.2127C3.66592 30.0446 3.25418 28.8389 2.99216 27.5578C2.69272 26.1259 2.61787 24.6564 2.76759 23.1492C3.44134 16.4799 8.75642 11.0918 15.3816 10.3758C17.852 10.1121 20.3972 10.5266 22.7179 11.5439C22.7554 11.5816 22.7928 11.5816 22.8302 11.5816L22.9051 11.6193C23.4291 11.8454 23.9157 12.1468 24.4023 12.4105C24.5894 12.5236 24.814 12.6366 25.0386 12.712C23.766 13.6917 22.2688 15.2742 21.7822 17.4973C21.7073 17.8364 21.9319 18.1755 22.2688 18.2509C22.3062 18.2509 22.3436 18.2509 22.4185 18.2509C22.7179 18.2509 22.9799 18.0625 23.0174 17.7611C23.8034 14.2945 27.5464 12.5989 27.6587 12.5613C27.8084 12.4859 27.9956 12.4105 28.1453 12.2975C30.8403 10.6773 33.9096 9.99905 37.0537 10.3382C43.6789 11.0541 48.994 16.4046 49.6677 23.1116C49.8174 24.6188 49.7426 26.126 49.4431 27.5955C49.1811 28.8389 48.7694 30.0446 48.1705 31.2127C46.3739 34.7546 45.1761 37.9951 44.5772 41.0848L41.7325 56.0436C41.5453 57.2494 40.6844 58.2667 39.4867 58.6058C38.2889 58.9826 36.9414 58.6058 36.118 57.6639C35.7437 57.2494 35.4816 56.6842 35.4068 56.0436C34.7705 51.5221 31.4017 39.0501 26.2364 39.0501C21.071 39.0501 17.6274 51.5597 16.9537 56.119C16.8414 56.7595 16.6168 57.3247 16.2425 57.7392C15.4565 58.6435 14.109 59.0203 12.9112 58.6435C11.7134 58.2667 10.8525 57.2494 10.6654 55.9683L7.8581 41.1978C7.59609 39.8414 7.22178 38.4472 6.73519 37.0154L11.3391 33.2474C12.6117 34.3025 14.2212 34.943 16.0179 34.943C20.0229 34.943 23.3168 31.6649 23.3168 27.5955C23.3168 23.5637 20.0604 20.2479 16.0179 20.2479C12.0129 20.2479 8.71899 23.5261 8.71899 27.5955C8.71899 29.4041 9.35532 31.062 10.4408 32.3431L0.222314 40.708C-0.0396975 40.9341 -0.0771095 41.3109 0.147472 41.6123C0.259763 41.763 0.44691 41.8384 0.634061 41.8384C0.783782 41.8384 0.896064 41.8007 1.04578 41.6877L5.68715 37.882C6.06145 39.0878 6.39832 40.2558 6.6229 41.4239L9.43017 56.1567C9.69219 57.9276 10.8899 59.3218 12.5743 59.8116C12.986 59.9246 13.4352 60 13.8844 60C15.157 60 16.3922 59.4725 17.2157 58.5305C17.7397 57.9276 18.114 57.1363 18.2263 56.232C19.0123 50.8062 22.5682 40.2558 26.2738 40.2558C29.942 40.2558 33.423 50.7685 34.1716 56.1567C34.2839 57.061 34.6582 57.8522 35.1822 58.4551C36.3425 59.7362 38.1392 60.2638 39.8236 59.7362C41.4705 59.2464 42.7057 57.8146 42.9303 56.1567L45.775 41.2355C46.3364 38.2588 47.4593 35.1314 49.2186 31.7025C49.8549 30.4591 50.304 29.1403 50.6035 27.7839C51.0152 26.2767 51.0901 24.6564 50.9029 22.9985ZM16.0179 21.6044C19.3492 21.6044 22.0442 24.3173 22.0442 27.6708C22.0442 31.0243 19.3492 33.7373 16.0179 33.7373C12.6866 33.7373 9.99163 31.0243 9.99163 27.6708C9.99163 24.355 12.724 21.6044 16.0179 21.6044Z" fill="#5A81FA"/>
<path d="M36.6045 20.9639C36.9414 20.9639 37.2408 20.7002 37.2408 20.3234V16.8569C37.2408 16.5177 36.9788 16.2163 36.6045 16.2163C36.2676 16.2163 35.9682 16.4801 35.9682 16.8569V20.3234C35.9682 20.6625 36.2676 20.9639 36.6045 20.9639Z" fill="#5A81FA"/>
<path d="M35.9682 29.3288C35.9682 29.6679 36.2302 29.9693 36.6045 29.9693C36.9414 29.9693 37.2408 29.7056 37.2408 29.3288V25.8622C37.2408 25.5231 36.9788 25.2217 36.6045 25.2217C36.2676 25.2217 35.9682 25.4854 35.9682 25.8622V29.3288Z" fill="#5A81FA"/>
<path d="M42.818 23.7144C43.1549 23.7144 43.4543 23.4507 43.4543 23.0739C43.4543 22.7348 43.1923 22.4333 42.818 22.4333H39.3744C39.0375 22.4333 38.7381 22.6971 38.7381 23.0739C38.7381 23.413 39.0001 23.7144 39.3744 23.7144H42.818Z" fill="#5A81FA"/>
<path d="M33.8721 23.7144C34.209 23.7144 34.5085 23.4507 34.5085 23.0739C34.5085 22.7348 34.2464 22.4333 33.8721 22.4333H30.4286C30.0917 22.4333 29.7922 22.6971 29.7922 23.0739C29.7922 23.413 30.0543 23.7144 30.4286 23.7144H33.8721Z" fill="#5A81FA"/>
</svg>
