<svg width="68" height="60" viewBox="0 0 68 60" fill="none" xmlns="http://www.w3.org/2000/svg">
<path d="M49.909 22.9921C49.1534 15.7334 43.3351 9.90392 36.0433 9.11411C32.6052 8.73802 29.2049 9.49021 26.2579 11.2579C25.4645 11.7468 24.52 11.7844 23.84 11.3331C23.311 11.0322 22.7821 10.7313 22.1398 10.4305C22.0642 10.3928 21.9509 10.3552 21.9887 10.3552C19.4573 9.22695 16.6615 8.81324 13.9413 9.07651C6.64949 9.86632 0.831188 15.6958 0.0755633 22.9545C-0.0755616 24.5717 -2.56721e-06 26.1513 0.302247 27.7309C0.566716 29.1225 1.05787 30.4388 1.70015 31.7175C3.51365 35.2152 4.64709 38.4121 5.25159 41.4208L8.08518 56.1638C8.34965 57.8939 9.55865 59.323 11.2588 59.812C11.6744 59.9248 12.1278 60 12.5811 60C13.8657 60 15.1125 59.4735 15.9437 58.5332C16.4726 57.9315 16.8504 57.1417 16.9638 56.239C17.7572 50.8232 21.3464 40.2925 25.0867 40.2925C28.7893 40.2925 32.3029 50.7856 33.0586 56.1638C33.1719 57.0665 33.5497 57.8563 34.0787 58.458C35.2499 59.7367 37.0634 60.2633 38.7635 59.7367C40.4259 59.2478 41.6727 57.8187 41.8994 56.1638L44.7707 41.2704C45.3375 38.2992 46.4709 35.1776 48.2466 31.7551C48.8889 30.514 49.3423 29.1977 49.6445 27.8437C49.9846 26.2641 50.0979 24.6469 49.909 22.9921ZM48.4355 27.6181C48.1711 28.8592 47.7555 30.0627 47.151 31.2286C45.3375 34.7639 44.1285 37.9983 43.524 41.0823L40.6526 56.0134C40.4637 57.2169 39.5947 58.2323 38.3857 58.5708C37.1389 58.9469 35.8166 58.5708 34.9854 57.6306C34.6076 57.2169 34.3431 56.6527 34.2676 56.0134C33.6253 51.5002 30.225 39.0514 25.0112 39.0514C19.7974 39.0514 16.3215 51.5378 15.6414 56.0886C15.5281 56.728 15.3014 57.2921 14.9236 57.7058C14.1302 58.6084 12.7701 58.9846 11.5611 58.6085C10.3521 58.2324 9.48309 57.2169 9.29418 55.9758V55.9382L6.46059 41.1952C5.85609 38.0359 4.64709 34.7639 2.79581 31.1534C2.19131 29.9875 1.77571 28.784 1.51125 27.5053C1.209 26.0761 1.13344 24.6093 1.28456 23.1049C1.96462 16.448 7.32956 11.0698 14.0168 10.3552C14.508 10.3176 15.0369 10.28 15.5281 10.28C17.5305 10.28 19.5329 10.6937 21.3842 11.5211C21.422 11.5211 21.4597 11.5587 21.4975 11.5587L21.6109 11.5964C22.1398 11.822 22.631 12.1229 23.1221 12.3862C23.311 12.499 23.5377 12.6118 23.7644 12.687C22.4798 13.6649 20.9686 15.2445 20.4774 17.4635C20.4019 17.802 20.6285 18.1404 20.9686 18.2157C21.0064 18.2157 21.0441 18.2157 21.1197 18.2157C21.422 18.2157 21.6864 18.0276 21.7242 17.7267C22.5176 14.229 26.3335 12.5742 26.4091 12.5366C26.5602 12.4614 26.7113 12.3862 26.9002 12.3109C29.6205 10.6937 32.7185 10.0168 35.8922 10.3552C42.5794 11.0698 47.9444 16.4104 48.6244 23.1049C48.8133 24.6469 48.7378 26.1513 48.4355 27.6181Z" fill="#5A81FA"/>
<path d="M35.4765 16.2222C35.1365 16.2222 34.8343 16.4854 34.8343 16.8615V20.3216C34.8343 20.6601 35.0987 20.961 35.4765 20.961C35.8166 20.961 36.1188 20.6977 36.1188 20.3216V16.8615C36.1188 16.523 35.8166 16.2222 35.4765 16.2222Z" fill="#5A81FA"/>
<path d="M35.4765 25.2109C35.1365 25.2109 34.8343 25.4742 34.8343 25.8503V29.3104C34.8343 29.6489 35.0987 29.9498 35.4765 29.9498C35.8166 29.9498 36.1188 29.6865 36.1188 29.3104V25.8503C36.1188 25.5118 35.8166 25.2109 35.4765 25.2109Z" fill="#5A81FA"/>
<path d="M41.7104 22.4656H38.2346C37.8945 22.4656 37.5923 22.7288 37.5923 23.1049C37.5923 23.4434 37.8568 23.7443 38.2346 23.7443H41.7104C42.0505 23.7443 42.3527 23.481 42.3527 23.1049C42.3527 22.7288 42.0882 22.4656 41.7104 22.4656Z" fill="#5A81FA"/>
<path d="M32.6808 22.4656H29.2049C28.8649 22.4656 28.5626 22.7288 28.5626 23.1049C28.5626 23.4434 28.8271 23.7443 29.2049 23.7443H32.6808C33.0208 23.7443 33.3231 23.481 33.3231 23.1049C33.3231 22.7288 33.0586 22.4656 32.6808 22.4656Z" fill="#5A81FA"/>
</svg>
