<svg width="68" height="60" viewBox="0 0 68 60" fill="none" xmlns="http://www.w3.org/2000/svg">
<path d="M51.1948 27.0012C45.4941 24.5387 25.183 17.0752 2.116 23.6294C0.907902 23.9704 0.039582 25.107 0.00182901 26.3572C-0.0359239 28.5167 0.492622 31.737 3.28634 34.6921C3.28634 34.73 3.28634 34.7679 3.28634 34.8058V41.2085C3.28634 42.1935 3.66387 43.1407 4.26791 43.8984C3.89038 44.3531 3.62611 44.9213 3.58836 45.5654L3.24858 51.8545C3.13533 54.1277 4.87196 56.0977 7.17489 56.2114L10.8747 56.4008C10.9124 56.4008 10.9879 56.4008 11.0257 56.4008C12.5358 56.4008 13.8194 55.1884 13.8949 53.673L14.1214 49.4298C14.1592 48.9373 14.1214 48.4069 14.0082 47.9522L16.3866 48.2174V56.2493C16.3866 58.333 18.0477 60 20.1242 60H26.5422C28.8073 60 30.6195 58.1436 30.6195 55.9083V49.5813C31.299 49.0888 31.7898 48.4069 32.0163 47.6112C32.3939 48.028 32.8846 48.369 33.4132 48.5584V54.8475C33.4132 55.7567 33.8285 56.5902 34.508 57.1206C35.0366 57.5374 35.6784 57.7647 36.3579 57.7647H42.4739C43.4932 57.7647 44.437 57.2343 44.9278 56.325C45.1544 55.9083 45.3054 55.4158 45.3054 54.9233V47.9901C45.3054 46.2852 44.4371 44.7698 43.1535 43.8605V39.8825C43.1535 39.6552 43.1157 39.4658 43.1157 39.2384C50.3265 36.738 52.3652 32.6463 52.9315 30.411C53.2335 29.0092 52.5162 27.5695 51.1948 27.0012ZM9.13805 37.1926V43.0649C8.87378 43.027 8.57175 42.9513 8.26973 42.9513L6.57085 42.8755C6.08006 42.8376 5.62702 42.9513 5.21174 43.1407C4.7587 42.6103 4.49443 41.9283 4.49443 41.2085V34.8058C4.49443 33.9344 5.21174 33.2146 6.08006 33.2146C7.77894 33.2146 9.13805 34.5785 9.13805 36.2833V37.1926ZM12.8378 49.3919L12.6113 53.6351C12.5736 54.5444 11.8185 55.2263 10.9124 55.1506L7.21264 54.9611C5.62702 54.8854 4.41893 53.5215 4.49443 51.9303L4.83421 45.6412C4.87196 44.7698 5.62702 44.05 6.53309 44.1258L8.23197 44.2015C10.9124 44.3531 12.9888 46.6641 12.8378 49.3919ZM10.4216 43.4438V37.1926C10.4216 35.4498 11.8185 34.0481 13.5551 34.0481C16.5376 34.0481 18.9916 36.4728 18.9916 39.5036V43.4059C17.708 44.1636 16.7641 45.4139 16.4621 46.9293L13.5929 46.6262C12.9511 45.2244 11.8185 44.0878 10.4216 43.4438ZM29.3359 55.8704C29.3359 57.4237 28.0523 58.7119 26.5044 58.7119H20.0864C18.7273 58.7119 17.6325 57.6132 17.6325 56.2493V47.9522C17.6325 45.7548 19.4069 43.9742 21.5965 43.9742H23.8994C26.8819 43.9742 29.3359 46.4368 29.3359 49.4298V55.8704ZM30.4307 47.9144C29.7512 44.9214 27.0707 42.6861 23.8994 42.6861H21.5965C21.1435 42.6861 20.6904 42.7618 20.2374 42.8755V39.5036V38.6323C20.2374 36.7759 21.7475 35.2225 23.6352 35.2225H24.7678C26.4667 35.2225 28.09 35.9045 29.2981 37.1547C30.3552 38.2155 30.9593 39.6173 31.0725 41.057V42.383L30.9592 46.4747C30.9215 47.043 30.7327 47.5355 30.4307 47.9144ZM43.984 47.9901V54.9233C43.984 55.1885 43.9085 55.4537 43.7952 55.681C43.531 56.1735 43.0024 56.4766 42.4361 56.4766H36.3202C35.9426 56.4766 35.5651 56.3629 35.2631 56.0977C34.8856 55.7946 34.659 55.3021 34.659 54.8096V47.9901C34.659 45.9443 36.3202 44.2773 38.3588 44.2773H40.2465C42.3229 44.2394 43.984 45.9443 43.984 47.9901ZM40.2842 42.9892H38.3966C35.9426 42.9892 33.8662 44.8077 33.4887 47.1945C32.7714 46.7778 32.3184 45.9822 32.3184 45.1108V42.4209V41.7768C32.3184 41.5116 32.3184 41.2843 32.3184 41.0191V40.4129C32.3184 38.1776 34.1305 36.3212 36.3957 36.3212H38.3211C40.2842 36.3212 41.8699 37.9124 41.8699 39.8825V43.2165C41.3413 43.0649 40.8128 42.9892 40.2842 42.9892ZM51.6479 30.1079C51.1571 32.1159 49.3072 35.753 42.7382 38.0261C42.0209 36.2834 40.2842 35.071 38.3211 35.071H36.3957C34.2438 35.071 32.3939 36.3591 31.5633 38.1776C31.2235 37.4957 30.7705 36.8516 30.2042 36.2833C28.7696 34.8058 26.8442 33.9723 24.7678 33.9723H23.6352C21.8608 33.9723 20.3129 34.9952 19.5201 36.4728C18.4253 34.2754 16.1601 32.7978 13.5551 32.7978C12.1205 32.7978 10.8747 33.5176 10.0441 34.5785C9.36456 33.063 7.85444 31.9644 6.08006 31.9644C5.06073 31.9644 4.19241 32.4948 3.70162 33.2904C1.62521 30.8278 1.20992 28.2136 1.24768 26.3951C1.24768 25.6752 1.73847 25.0312 2.41802 24.8418C25.0698 18.4011 45.0789 25.751 50.6663 28.1378C51.4591 28.4788 51.8366 29.3123 51.6479 30.1079Z" fill="#5A81FA"/>
</svg>
