<svg width="68" height="60" viewBox="0 0 68 60" fill="none" xmlns="http://www.w3.org/2000/svg">
<path d="M62.8326 26.481C62.173 19.8844 56.8957 14.6071 50.2991 13.9062C47.2069 13.5764 44.1148 14.236 41.4761 15.844C40.8165 16.2563 40.0331 16.2975 39.4147 15.9264C38.9612 15.6378 38.4664 15.3905 37.9717 15.1843L37.8892 15.1431C37.8068 15.1019 37.6831 15.0606 37.7243 15.1019C35.4155 14.0711 32.9006 13.7001 30.4268 13.9475C23.8302 14.6483 18.5529 19.9256 17.8933 26.5222C17.7284 27.9652 17.8108 29.4082 18.0994 30.8512C18.3468 32.0881 18.7591 33.325 19.3775 34.4382C20.1609 35.9224 20.7793 37.3242 21.274 38.6847C21.3977 39.0558 21.81 39.2207 22.1811 39.097C22.5521 38.9733 22.717 38.561 22.5934 38.19C22.0574 36.7882 21.439 35.3452 20.6556 33.7785C20.1196 32.7478 19.7486 31.6758 19.5012 30.5214C19.2538 29.2433 19.1714 27.924 19.2951 26.6047C19.9135 20.6677 24.6548 15.8852 30.5917 15.2668C32.8181 15.0194 35.0857 15.3905 37.1471 16.2975C37.1883 16.3387 37.2296 16.3387 37.2708 16.3387L37.3533 16.3799C37.8068 16.5861 38.2603 16.8335 38.7138 17.0808C38.8375 17.1633 38.9612 17.2045 39.0849 17.287C37.9717 18.194 36.6936 19.5958 36.2813 21.5335C36.1989 21.9046 36.4462 22.2757 36.8173 22.3581C36.8585 22.3581 36.8997 22.3581 36.9822 22.3581C37.312 22.3581 37.6006 22.152 37.6419 21.8221C38.3428 18.73 41.7235 17.2458 41.7647 17.2458C41.9297 17.1633 42.0533 17.1221 42.2183 17.0396C44.6095 15.5966 47.3719 14.9782 50.2166 15.308C56.1536 15.9264 60.8949 20.709 61.5133 26.6459C61.637 28.0065 61.5958 29.3258 61.3072 30.6451C61.0598 31.7583 60.6887 32.8302 60.1528 33.8609C58.5036 37.0356 57.4317 39.9628 56.8957 42.7663L54.2983 56.2069C54.1334 57.2377 53.3913 58.1035 52.3605 58.4333C51.2886 58.7631 50.1754 58.4333 49.4745 57.65C49.1447 57.2789 48.9386 56.7841 48.8561 56.2482C48.2789 52.1665 45.1867 40.8698 40.4454 40.8698C35.6629 40.8698 32.5295 52.1665 31.9523 56.2894C31.8698 56.8254 31.6637 57.3201 31.3339 57.6912C30.633 58.4745 29.4786 58.8044 28.4479 58.4745C27.4171 58.1447 26.675 57.2789 26.5101 56.1657L23.9951 43.1786C27.7469 41.5295 30.468 37.9838 31.004 33.696C33.6014 33.4074 35.6216 31.2223 35.6216 28.5424C35.6216 25.6976 33.2716 23.3476 30.4268 23.3476C27.582 23.3476 25.232 25.6976 25.232 28.5424C25.232 31.1398 27.1285 33.2837 29.6435 33.6548C28.9426 38.9321 24.4899 42.8488 19.0889 42.8488C13.2344 42.8488 8.4519 38.0663 8.4519 32.2118V29.6144C12.4511 29.2433 15.5845 25.9038 15.5845 21.8634V9.70088C15.5845 9.32982 15.2959 9 14.8836 9H10.4721C10.101 9 9.7712 9.28859 9.7712 9.70088C9.7712 10.1132 10.0598 10.4018 10.4721 10.4018H14.2239V21.8634C14.2239 25.4091 11.3379 28.2951 7.79222 28.2951C4.24655 28.2951 1.36054 25.4091 1.36054 21.8634V10.4018H5.3185C5.68956 10.4018 6.01939 10.1132 6.01939 9.70088C6.01939 9.28859 5.73078 9 5.3185 9H0.700869C0.32981 9 0 9.28859 0 9.70088V21.8634C0 25.945 3.13338 29.2846 7.13257 29.6144V32.2118C7.13257 38.8496 12.5335 44.2506 19.1714 44.2506C20.4495 44.2506 21.6451 44.0445 22.7995 43.7146L25.232 56.4543C25.4794 58.0622 26.5926 59.3816 28.1592 59.8351C28.5715 59.9588 28.9838 60 29.3961 60C30.5917 60 31.7049 59.5052 32.4883 58.6394C32.983 58.0622 33.3128 57.3613 33.4365 56.5368C34.1374 51.713 37.312 42.2716 40.5691 42.2716C43.8262 42.2716 46.9183 51.6305 47.6192 56.4543C47.7429 57.2789 48.0727 58.021 48.5675 58.5982C49.6394 59.7938 51.3298 60.2886 52.8965 59.7939C54.422 59.3403 55.5764 58.021 55.7825 56.4956L58.3799 43.0962C58.8747 40.4163 59.9054 37.6128 61.5133 34.5618C62.0905 33.4487 62.5028 32.253 62.7914 31.0161C62.9151 29.4495 62.9976 27.9652 62.8326 26.481ZM26.5926 28.5012C26.5926 26.3985 28.3242 24.6669 30.4268 24.6669C32.5295 24.6669 34.2611 26.3985 34.2611 28.5012C34.2611 30.6039 32.5295 32.3355 30.4268 32.3355C28.2829 32.2942 26.5926 30.6039 26.5926 28.5012Z" fill="#5A81FA"/>
</svg>
