<svg width="68" height="60" viewBox="0 0 68 60" fill="none" xmlns="http://www.w3.org/2000/svg">
<path d="M54.6673 24.4511C53.5764 23.0177 51.9963 22.1124 50.2282 21.8861L43.6072 21.0185C33.2995 19.6605 22.8789 19.6605 12.5711 21.0185L5.79964 21.8861C2.18817 22.3387 -0.369929 25.6959 0.0438855 29.2794C0.344841 31.6936 1.96247 33.7305 4.21964 34.5227V38.3702C4.21964 39.5396 5.16011 40.4826 6.32632 40.4826H6.853C7.60539 40.4826 8.28252 40.2186 8.80919 39.8036V40.1054C8.80919 41.2748 9.74967 42.2178 10.9159 42.2178H11.5554C12.985 42.2178 14.2264 41.4257 14.8659 40.2563C15.3926 40.8598 16.1826 41.2748 17.0479 41.2748H17.8379C18.7407 41.2748 19.5308 40.8598 20.0574 40.2186C20.9227 42.0292 22.766 43.2363 24.9103 43.2363H25.8132C26.9794 43.2363 28.0328 42.6327 28.6347 41.7274C29.2742 42.6327 30.3275 43.2363 31.5314 43.2363H32.4342C34.5033 43.2363 36.309 41.9915 37.1743 40.2563C37.701 40.8598 38.491 41.2748 39.3562 41.2748H40.1462C41.0115 41.2748 41.8015 40.8598 42.3281 40.2563C43.0053 41.4257 44.2091 42.2178 45.6387 42.2178H46.2782C47.4444 42.2178 48.3849 41.2748 48.3849 40.1054V39.8036C48.9116 40.2186 49.5887 40.4826 50.3411 40.4826H50.8678C52.034 40.4826 52.9745 39.5396 52.9745 38.3702V33.9191C54.5545 32.9384 55.6455 31.2787 55.9088 29.3926C56.2097 27.6574 55.7583 25.8845 54.6673 24.4511ZM10.1259 34.3341V33.3156C10.1259 32.7875 10.5773 32.3348 11.104 32.3348H12.0821C13.2107 32.3348 14.1512 33.2779 14.1512 34.4095V34.9376V35.3525C12.684 35.2771 11.3297 35.2017 10.0883 35.1639V34.3341H10.1259ZM16.1826 33.0138L16.8974 32.2217C17.0479 32.0708 17.236 31.9576 17.4617 31.9576C17.6874 31.9576 17.8755 32.0331 18.026 32.2217L18.7407 33.0138C19.2298 33.5419 19.4931 34.2209 19.4931 34.9753V35.6166C18.1012 35.5789 16.7093 35.5034 15.355 35.4657V34.9753C15.4302 34.2209 15.6935 33.5419 16.1826 33.0138ZM36.4595 34.9376V35.6166C33.9014 35.692 31.4185 35.7675 29.2742 35.7675V33.5796C29.2742 31.8067 30.7037 30.3733 32.4718 30.3733H33.2618C35.03 30.3733 36.4595 31.8067 36.4595 33.5796V34.9376ZM38.4534 33.0138L39.1681 32.2217C39.3186 32.0708 39.5067 31.9576 39.7324 31.9576C39.9581 31.9576 40.1462 32.0331 40.2967 32.2217L41.0114 33.0138C41.5005 33.5419 41.7638 34.2209 41.7638 34.9753V35.4657C40.4095 35.5411 39.0176 35.5789 37.6257 35.6166V34.9753C37.7009 34.2209 37.9643 33.5419 38.4534 33.0138ZM51.733 33.8437V34.9376C51.0935 34.9753 49.9273 35.0508 48.3849 35.1262V34.2586C48.4225 33.5042 49.062 32.9007 49.8144 32.9007H50.7173C51.2816 32.8629 51.733 33.3156 51.733 33.8437ZM47.1434 34.2586C47.1434 34.2964 47.1434 34.3341 47.1434 34.3341V35.2017C45.9396 35.2771 44.5477 35.3148 43.1182 35.3903V34.9753V34.4472C43.1182 33.3156 44.0587 32.3726 45.1872 32.3726H46.1653C46.692 32.3726 47.1434 32.8252 47.1434 33.3533V34.2586ZM27.9951 35.8052C25.8884 35.8052 23.3679 35.7297 20.8098 35.6543V34.9753V33.6551C20.8098 31.8822 22.2394 30.4488 24.0075 30.4488H24.7975C26.5656 30.4488 27.9951 31.8822 27.9951 33.6551V35.8052ZM8.8468 35.1262C7.34202 35.0508 6.17586 34.9753 5.49871 34.9376V33.8437C5.49871 33.3156 5.95013 32.8629 6.4768 32.8629H7.37968C8.16969 32.8629 8.8468 33.5042 8.8468 34.3341V35.1262ZM6.89061 39.2378H6.36393C5.91249 39.2378 5.53632 38.8606 5.53632 38.408V36.1824C6.21347 36.2201 7.37968 36.2956 8.88446 36.371V37.2763C8.84684 38.3703 7.98157 39.2378 6.89061 39.2378ZM14.1512 38.3702C14.1512 39.8036 12.985 40.973 11.5554 40.973H10.9159C10.4644 40.973 10.0883 40.5958 10.0883 40.1431V37.2763V36.4465C11.2921 36.5219 12.684 36.5596 14.1512 36.6351V38.3702ZM19.5684 38.3325C19.5684 39.2756 18.816 40.03 17.8755 40.03H17.0855C16.145 40.03 15.3926 39.2756 15.3926 38.3325V36.6728C16.7469 36.7482 18.1388 36.786 19.5307 36.8237V37.8422V38.3325H19.5684ZM27.9951 39.8414C27.9951 41.0485 27.017 41.9915 25.8508 41.9915H24.948C22.6908 41.9915 20.8098 40.1431 20.8098 37.8422V36.8614C23.3679 36.9368 25.8884 37.0123 27.9951 37.0123V39.6528V39.8414ZM32.4718 42.0292H31.569C30.2899 42.0292 29.2742 41.0107 29.2742 39.7282V37.0877C31.4185 37.0877 33.9014 37.0123 36.4595 36.9368V38.0685C36.4595 40.2186 34.6538 42.0292 32.4718 42.0292ZM40.1462 40.03H39.3562C38.4157 40.03 37.6633 39.2756 37.6633 38.3325V37.993V36.8237C39.0553 36.786 40.4472 36.7105 41.8015 36.6728V38.3325C41.8391 39.2756 41.0867 40.03 40.1462 40.03ZM46.3158 40.973H45.6763C44.2467 40.973 43.0805 39.8036 43.0805 38.3702V38.3325V36.6351C44.5477 36.5596 45.902 36.4842 47.1058 36.4465V37.2763C47.1058 37.3141 47.1058 37.3518 47.1058 37.3518V40.1054C47.1434 40.5958 46.7673 40.973 46.3158 40.973ZM50.9054 39.2378H50.3787C49.3254 39.2378 48.4601 38.408 48.4225 37.3518V36.371C49.8897 36.2956 51.0559 36.2201 51.7706 36.1824V38.408C51.733 38.8606 51.3568 39.2378 50.9054 39.2378ZM54.7049 29.2794C54.5168 30.6374 53.7644 31.8822 52.6735 32.6743C52.2973 32.0331 51.5825 31.6182 50.7925 31.6182H49.8897C49.2501 31.6182 48.6482 31.8445 48.1591 32.2594C47.783 31.5427 47.0682 31.09 46.2029 31.09H45.2249C44.0587 31.09 43.0053 31.7313 42.4034 32.6366C42.2905 32.4857 42.1777 32.2971 42.0272 32.1462L41.3124 31.3541C40.9362 30.9392 40.3719 30.7128 39.8076 30.7128C39.2434 30.7128 38.6791 30.9392 38.3029 31.3541L37.5881 32.1462C37.5505 32.184 37.5505 32.2217 37.5129 32.2217C36.9109 30.4488 35.2557 29.1285 33.2618 29.1285H32.4718C30.8542 29.1285 29.4247 29.9961 28.6347 31.3164C27.8447 29.9961 26.4151 29.1285 24.7975 29.1285H24.0075C22.0513 29.1285 20.3584 30.4111 19.7564 32.2217C19.7188 32.184 19.7188 32.1462 19.6812 32.1462L18.9664 31.3541C18.5903 30.9392 18.026 30.7128 17.4617 30.7128C16.8974 30.7128 16.3331 30.9392 15.9569 31.3541L15.2421 32.1462C15.0916 32.2971 14.9788 32.448 14.8659 32.6366C14.264 31.6936 13.2483 31.09 12.0445 31.09H11.0664C10.2011 31.09 9.48636 31.5804 9.11017 32.2594C8.62111 31.8822 8.05683 31.6182 7.37968 31.6182H6.4768C5.46108 31.6182 4.5958 32.2971 4.33247 33.2402C2.67721 32.5235 1.54863 30.9769 1.32291 29.1285C0.984335 26.1863 3.05342 23.5081 5.98773 23.1309L12.7592 22.2633C22.9541 20.943 33.2995 20.943 43.4944 22.2633L50.1154 23.1309C51.5449 23.3195 52.824 24.0739 53.7268 25.2433C54.5545 26.3749 54.893 27.8083 54.7049 29.2794Z" fill="#5A81FA"/>
<path d="M51.2064 52.9085C50.943 50.9848 49.5511 49.4382 47.6325 48.8347V46.2319C47.6325 45.138 46.7296 44.2327 45.6387 44.2327H43.6072C42.2529 44.2327 41.1244 45.1003 40.7105 46.3073C40.3343 46.081 39.8453 45.9301 39.3563 45.9301H36.9862C36.3091 45.9301 35.7071 46.1564 35.2933 46.5337C34.8043 45.9301 33.9766 45.5529 33.0738 45.5529H30.2523C29.3871 45.5529 28.6347 45.8924 28.108 46.4582C27.619 45.9301 26.8289 45.5529 25.9637 45.5529H23.1422C22.2394 45.5529 21.4118 45.9301 20.9227 46.5337C20.4713 46.1564 19.8694 45.9301 19.2298 45.9301H16.8598C16.3707 45.9301 15.8817 46.081 15.5055 46.3073C15.0917 45.1003 13.9255 44.2327 12.6088 44.2327H10.5774C9.4864 44.2327 8.58351 45.138 8.58351 46.2319V49.3627C7.30445 50.1172 6.40157 51.3997 6.17586 52.7954L5.68683 56.0017C5.61159 56.4921 5.72445 56.9824 6.06302 57.3974C6.4016 57.85 6.89063 58.1141 7.45493 58.1895L16.2203 59.2457C20.3584 59.7361 24.5342 60.0001 28.7099 60.0001C32.8857 60.0001 37.0614 59.7361 41.1996 59.2457L50.0025 58.1895C50.5668 58.1141 51.0559 57.85 51.3945 57.4351C51.6954 57.0202 51.8459 56.5298 51.7707 56.0394L51.2064 52.9085ZM41.7262 47.3258C41.7262 46.3073 42.5539 45.4775 43.5696 45.4775H45.6011C46.0149 45.4775 46.3535 45.817 46.3535 46.2319V51.0979C46.3535 51.8146 45.7515 52.4182 45.0368 52.4182H43.0053C42.2906 52.4182 41.7262 51.8523 41.7262 51.1356V50.1549V48.0802V47.3258ZM36.911 47.2126H39.281C39.9205 47.2126 40.4472 47.5899 40.4472 48.0802V50.1549C40.4472 51.1357 39.9958 52.0787 39.1682 52.8331L38.6791 53.2858C38.3781 53.5498 37.8138 53.5498 37.5129 53.2858L37.0238 52.8331C36.1962 52.1164 35.7447 51.1357 35.7447 50.1549V48.0802C35.7447 47.5899 36.2715 47.2126 36.911 47.2126ZM30.1395 46.8354H32.9609C33.7886 46.8354 34.4657 47.3635 34.4657 47.9671V48.0802V50.1549V50.4567C34.4657 51.6637 33.9014 52.8331 32.8857 53.7007L32.2838 54.2288C31.87 54.5683 31.1552 54.5683 30.779 54.2288L30.1771 53.7007C29.1614 52.7954 28.597 51.6637 28.597 50.4567V47.9671C28.6347 47.3635 29.3495 46.8354 30.1395 46.8354ZM21.5622 47.9671C21.5622 47.3635 22.2394 46.8354 23.067 46.8354H25.8885C26.7161 46.8354 27.3932 47.3635 27.3932 47.9671V50.4567C27.3932 51.6637 26.829 52.8331 25.8132 53.7007L25.2113 54.2288C24.7975 54.5683 24.0827 54.5683 23.7065 54.2288L23.1046 53.7007C22.0889 52.7954 21.5246 51.6637 21.5246 50.4567V50.1549V48.0802V47.9671H21.5622ZM16.7469 47.2126H19.117C19.7565 47.2126 20.2832 47.5899 20.2832 48.0802V50.1549C20.2832 51.1357 19.8317 52.0787 19.0041 52.8331L18.5151 53.2858C18.2141 53.5498 17.6498 53.5498 17.3489 53.2858L16.8598 52.8331C16.0322 52.1164 15.5807 51.1357 15.5807 50.1549V48.0802C15.5807 47.5899 16.1074 47.2126 16.7469 47.2126ZM9.67448 46.1942C9.67448 45.7792 10.0131 45.4397 10.4269 45.4397H12.4583C13.4741 45.4397 14.3017 46.2696 14.3017 47.2881V48.0425V50.1172V51.0979C14.3017 51.8146 13.7374 52.3804 13.0226 52.3804H10.9912C10.2764 52.3804 9.67448 51.7769 9.67448 51.0602V46.1942ZM50.2282 56.6429C50.1154 56.7938 49.9273 56.907 49.7016 56.9447L40.8986 58.0009C32.6976 58.9817 24.3837 58.9817 16.2203 58.0009L7.45493 56.9447C7.22921 56.907 7.0411 56.7938 6.92825 56.6429C6.85301 56.5675 6.77779 56.3789 6.81541 56.1903L7.30444 52.984C7.4173 52.1918 7.8311 51.4751 8.47063 50.9093V51.0979C8.47063 52.5313 9.63686 53.663 11.0288 53.663H13.0602C13.8879 53.663 14.6026 53.248 15.0917 52.6445C15.355 53.0594 15.6936 53.4366 16.0698 53.7761L16.5588 54.2288C16.935 54.5683 17.4617 54.7569 17.9508 54.7569C18.4774 54.7569 18.9665 54.5683 19.3427 54.2288L19.8317 53.7761C20.2079 53.4366 20.5465 53.0594 20.8098 52.6822C21.1484 53.3989 21.6375 54.0779 22.3146 54.6814L22.9165 55.2095C23.368 55.5867 23.9323 55.7754 24.4966 55.7754C25.0609 55.7754 25.6627 55.5867 26.0766 55.2095L26.6785 54.6814C27.2428 54.1534 27.7318 53.5875 28.0704 52.9463C28.409 53.5875 28.8604 54.1534 29.4247 54.6814L30.0266 55.2095C30.478 55.5867 31.0423 55.7754 31.6066 55.7754C32.1709 55.7754 32.7728 55.5867 33.1866 55.2095L33.7886 54.6814C34.4657 54.1156 34.9548 53.4366 35.2933 52.6822C35.5567 53.0971 35.8576 53.4744 36.2714 53.7761L36.7605 54.2288C37.1367 54.5683 37.6633 54.7569 38.1524 54.7569C38.6791 54.7569 39.1682 54.5683 39.5443 54.2288L40.0334 53.7761C40.4096 53.4366 40.7481 53.0594 41.0115 52.6445C41.4629 53.248 42.2153 53.663 43.0429 53.663H45.0744C46.5039 53.663 47.6325 52.4936 47.6325 51.0979V50.1549C48.9116 50.683 49.8144 51.7769 49.9649 53.0594L50.3787 56.1903C50.3787 56.4166 50.3035 56.5675 50.2282 56.6429Z" fill="#5A81FA"/>
</svg>
