<svg width="68" height="60" viewBox="0 0 68 60" fill="none" xmlns="http://www.w3.org/2000/svg">
<path d="M60.5342 51.315L58.8534 47.2772C58.777 46.5534 58.395 45.8678 57.7837 45.4107C57.4781 45.1821 57.1343 45.0298 56.7905 44.9536C57.1725 44.306 57.2871 43.506 57.0579 42.7823L55.6062 37.7922C55.377 36.9923 54.804 36.3447 54.0399 36.0019C53.8107 35.8876 53.5815 35.8495 53.3141 35.8114C53.5051 35.5448 53.6579 35.202 53.7343 34.8591C53.8871 34.1735 53.6961 33.4497 53.2759 32.8783L50.6018 29.3739C50.1433 28.8025 49.4939 28.4216 48.7299 28.3835C48.5771 28.3835 48.4243 28.3835 48.2333 28.4215C48.4625 27.9264 48.5007 27.3549 48.3479 26.7836C48.1569 26.0979 47.6984 25.5265 47.049 25.2218L43.076 23.2791C42.4266 22.9744 41.6626 22.9363 40.9749 23.241C40.8985 23.2791 40.8221 23.3172 40.7457 23.3934C40.8221 22.6696 40.6311 21.9459 40.1727 21.3745C39.676 20.7269 38.912 20.346 38.1098 20.3079L32.8761 20.0032C32.0357 19.9651 31.2334 20.2698 30.6604 20.8793C30.584 20.9555 30.5458 21.0316 30.5076 21.0697C30.4694 20.9936 30.393 20.9174 30.3548 20.8793C29.7818 20.2698 28.9795 19.9651 28.1391 20.0032L22.9054 20.3079C22.1032 20.346 21.3392 20.765 20.8425 21.3745C20.4223 21.9078 20.1931 22.6315 20.2313 23.3172C20.1931 23.3172 20.1931 23.2791 20.1549 23.2791C19.4673 22.9744 18.7032 23.0124 18.0538 23.3172L14.0808 25.2599C13.4314 25.5646 12.9729 26.136 12.7819 26.8217C12.6291 27.355 12.6673 27.9263 12.8966 28.4596C12.7055 28.4215 12.5527 28.4215 12.3617 28.4215C11.6359 28.4596 10.9482 28.8025 10.4898 29.4119L7.81569 32.9164C7.39547 33.4878 7.20448 34.2116 7.35729 34.8972C7.43369 35.2401 7.58649 35.5829 7.7775 35.8495C7.58649 35.8876 7.35729 35.9638 7.16628 36.04C6.40224 36.3828 5.8292 37.0304 5.59999 37.8303L4.14832 42.8204C3.91911 43.5442 4.03372 44.3441 4.41574 44.9917C4.07193 45.1059 3.72809 45.2202 3.42248 45.4487C2.81125 45.9059 2.46744 46.5534 2.35283 47.2772L0.595557 51.0483C-0.321288 52.991 -0.16848 55.2384 0.977575 57.0669C2.12363 58.8953 4.11011 59.9619 6.28762 59.9619H8.92356C12.7819 59.9619 16.2201 57.4859 17.4808 53.829L20.0021 46.363C21.4538 42.0966 25.465 39.2017 30.011 39.2017C34.2132 39.2017 38.0334 41.6776 39.676 45.563L43.5726 54.5528C44.9861 57.8668 48.2715 60 51.8624 60H54.5748C56.6759 60 58.6242 58.9715 59.8084 57.2192C61.1073 55.467 61.3365 53.2577 60.5342 51.315ZM54.7276 58.7049H52.0152C48.9209 58.7049 46.1322 56.8764 44.9097 54.0576L41.0131 45.0678C39.1412 40.7634 34.8626 37.9446 30.1638 37.9446C25.0829 37.9446 20.5751 41.1824 18.9706 45.944L16.4493 53.41C15.3797 56.5717 12.4381 58.6668 9.11456 58.6668H6.47863C4.75954 58.6668 3.19328 57.7907 2.23823 56.3432C1.32139 54.8957 1.20679 53.1053 1.93262 51.5435L2.35283 50.6674L2.23823 52.6101C2.20003 53.41 2.50565 54.1338 3.07868 54.7433C3.68991 55.3527 4.53034 55.6956 5.40898 55.6956C5.44718 55.6956 5.44719 55.6956 5.48539 55.6956L9.19097 55.6194C10.0314 55.6194 10.8337 55.2385 11.3685 54.6671C11.8651 54.0957 12.0943 53.3719 12.0179 52.6482L11.5977 48.2295C11.5595 47.7343 11.3685 47.2391 11.0628 46.8201C11.4449 46.7439 11.7887 46.5915 12.1325 46.363C12.7437 45.9059 13.164 45.2583 13.2786 44.4964L13.928 40.154C14.0426 39.3921 13.8516 38.6684 13.4314 38.097C13.928 37.9065 14.3864 37.5256 14.6538 37.0304L16.4875 33.7925C16.7549 33.3354 16.8695 32.8021 16.7931 32.3069C16.8313 32.3069 16.8696 32.3069 16.9078 32.3069C17.4044 32.3069 17.8628 32.1546 18.283 31.8879L21.3773 29.8309C21.7594 29.5643 22.0268 29.2215 22.2178 28.8406C22.6762 29.1453 23.211 29.2977 23.7459 29.2977C23.9369 29.2977 24.1279 29.2977 24.2807 29.2596L28.6357 28.4215C29.5143 28.2692 30.202 27.6978 30.584 26.974C30.966 27.6978 31.6919 28.2311 32.5323 28.4215L36.8873 29.2596C37.0783 29.2977 37.2693 29.2977 37.4221 29.2977C37.9952 29.2977 38.5682 29.1072 39.0266 28.8025C39.0648 28.8025 39.0648 28.7644 39.0648 28.7644C39.2558 29.1834 39.5614 29.5643 39.9435 29.8691L43.0378 31.926C43.458 32.1927 43.9165 32.3451 44.4131 32.3451C44.4513 32.3451 44.4895 32.3451 44.4895 32.3451C44.4513 32.8403 44.5277 33.3735 44.7951 33.8306L46.6288 37.0685C46.9344 37.6018 47.3928 37.9446 47.9659 38.1731C47.5838 38.7445 47.3928 39.4683 47.5074 40.1921L48.1569 44.5346C48.2715 45.2964 48.6535 45.9439 49.3029 46.4011C49.6085 46.6296 49.9905 46.782 50.3726 46.8582C50.0669 47.2772 49.8759 47.7343 49.8377 48.2676L49.4175 52.6863C49.3411 53.4481 49.5703 54.1719 50.1051 54.7052C50.64 55.3147 51.4422 55.6575 52.2827 55.6575L55.9882 55.7336C56.0264 55.7336 56.0264 55.7336 56.0646 55.7336C56.9433 55.7336 57.7837 55.3908 58.395 54.7813C58.968 54.21 59.2736 53.4481 59.2354 52.6482L59.159 51.1245L59.4264 51.7721C60.0758 53.3339 59.923 55.048 58.968 56.4574C57.9365 57.9049 56.4085 58.7049 54.7276 58.7049ZM12.5145 29.6405C12.8584 29.6405 13.164 29.7929 13.3932 30.0214L15.0359 31.7737C15.4179 32.1546 15.4943 32.7641 15.2269 33.2212L13.3932 36.459C13.2404 36.7256 12.973 36.9542 12.6291 37.0304C12.3235 37.1066 11.9797 37.0685 11.7123 36.9161L9.22917 35.4305C8.92355 35.2401 8.73254 34.9734 8.65614 34.6306C8.57973 34.2878 8.65615 33.9449 8.88536 33.6783L11.5595 30.1738C11.7887 29.9071 12.0943 29.7167 12.4763 29.7167C12.4763 29.6405 12.4763 29.6405 12.5145 29.6405ZM28.2919 21.2221C28.7121 21.2221 29.1323 21.4126 29.438 21.7173C29.7436 22.0602 29.9346 22.5172 29.8582 22.9743L29.5907 25.8313C29.5143 26.5169 29.0177 27.0883 28.3301 27.2026L23.9751 28.0406C23.5549 28.1168 23.1346 28.0406 22.7908 27.774C22.5998 27.6216 22.447 27.4692 22.3324 27.2788C22.3324 27.2026 22.2942 27.1264 22.2942 27.0883L22.065 26.3646L21.5302 23.3934C21.4538 22.9363 21.5684 22.4792 21.8358 22.1363C22.1032 21.7935 22.5234 21.565 22.9818 21.5269L28.2155 21.2221C28.2537 21.2221 28.2919 21.2221 28.2919 21.2221ZM32.8379 21.2221L38.0716 21.5269C38.53 21.565 38.9502 21.7554 39.2176 22.1363C39.485 22.4792 39.5996 22.9363 39.5232 23.3934L38.912 26.7836C38.8356 27.2026 38.6064 27.5835 38.2626 27.8121C37.9188 28.0406 37.4985 28.1549 37.0783 28.0787L32.7233 27.2407C32.0357 27.0883 31.5391 26.5551 31.4626 25.8694L31.1952 23.0125C31.157 22.5554 31.3099 22.0982 31.6155 21.7554C31.9211 21.4126 32.3795 21.184 32.8379 21.2221ZM42.5794 24.4219L46.5142 26.3646C46.8198 26.5169 47.049 26.7836 47.1636 27.1264C47.24 27.4692 47.2018 27.8121 47.0108 28.1168L45.4445 30.5166C45.2535 30.7833 44.9861 30.9737 44.6805 31.0499C44.3749 31.1261 44.0311 31.0499 43.7636 30.8595L40.6693 28.8025C40.2109 28.4977 40.0199 27.9264 40.1727 27.4312L40.8985 25.1456C41.0131 24.8028 41.2423 24.5362 41.5861 24.3838C41.8918 24.2695 42.2738 24.2695 42.5794 24.4219ZM57.5927 47.5438L57.8601 52.7625C57.8983 53.1815 57.7073 53.6005 57.4017 53.9433C57.0197 54.3243 56.5231 54.5909 55.95 54.5147L52.2445 54.4385C51.7478 54.4385 51.2894 54.2481 51.022 53.9052C50.7546 53.6005 50.64 53.2196 50.6782 52.8386L51.0984 48.42C51.1748 47.7343 51.7478 47.0867 52.5119 46.9344L54.5366 46.4392L54.804 46.4011C54.995 46.363 55.186 46.3249 55.377 46.2487L55.5298 46.2106C55.6826 46.1725 55.8354 46.1725 55.9882 46.1725C56.3703 46.1725 56.7523 46.2868 57.0579 46.5154C57.3635 46.7439 57.5927 47.0867 57.5927 47.5438ZM55.6826 44.4203C55.4916 44.6869 55.2624 44.8774 54.995 45.0297L54.3074 45.1821L51.2512 45.6773C50.831 45.7535 50.4108 45.6392 50.067 45.4107C49.7231 45.144 49.4939 44.8012 49.4557 44.3822L48.8063 40.0397C48.6917 39.354 49.0737 38.7064 49.6849 38.4017L52.2445 37.2208C52.4355 37.1066 52.6647 37.0685 52.8939 37.0685C53.1231 37.0685 53.3523 37.1066 53.5433 37.2208C53.9635 37.4113 54.2692 37.7541 54.3838 38.2112L55.8354 43.2013C55.9882 43.5823 55.9118 44.0394 55.6826 44.4203ZM52.5501 34.5925C52.4737 34.9353 52.2827 35.2401 51.977 35.3924L49.4939 36.878C49.2265 37.0304 48.8827 37.1066 48.5771 36.9923C48.2715 36.9161 48.004 36.6876 47.813 36.4209L45.9794 33.1831C45.7119 32.726 45.7883 32.1165 46.1704 31.7356L47.813 29.9833C48.0422 29.7548 48.3479 29.6024 48.6917 29.6024C48.7299 29.6024 48.7299 29.6024 48.7681 29.6024C49.1119 29.6024 49.4557 29.7929 49.6849 30.0595L52.3591 33.564C52.5119 33.9068 52.6265 34.2496 52.5501 34.5925ZM20.8425 26.974C20.8807 27.2026 20.9571 27.4312 21.0717 27.6216C21.1481 28.0787 20.9571 28.5358 20.5751 28.8025L17.4808 30.8595C17.2134 31.0499 16.8695 31.1261 16.5639 31.0499C16.2583 30.9737 15.9527 30.7833 15.7999 30.5166L14.2336 28.1168C14.0426 27.8121 14.0044 27.4692 14.0808 27.1264C14.1572 26.7836 14.3864 26.5169 14.7302 26.3646L18.665 24.4219C18.8178 24.3457 19.0089 24.3076 19.1999 24.3076C19.3527 24.3076 19.5437 24.3457 19.6965 24.4219C20.0403 24.5742 20.2695 24.8409 20.3841 25.1837L20.8425 26.6693V26.974ZM11.5977 38.3636C12.2089 38.6683 12.5909 39.3159 12.4763 40.0016L11.8269 44.3441C11.7505 44.7631 11.5595 45.144 11.2157 45.3726C10.8719 45.6392 10.4516 45.7154 10.0314 45.6392L6.97527 45.144L6.28762 44.9917C6.02021 44.8774 5.7528 44.6869 5.59999 44.3822C5.37078 44.0013 5.29437 43.5441 5.40898 43.1251L6.86065 38.1351C6.97525 37.678 7.28087 37.3351 7.70109 37.1447C7.8921 37.0685 8.12132 36.9923 8.35053 36.9923C8.57974 36.9923 8.80895 37.0304 8.99996 37.1447L11.5977 38.3636ZM4.26293 46.4773C4.56854 46.2487 4.91235 46.1344 5.33257 46.1344C5.48538 46.1344 5.63819 46.1344 5.791 46.1725L5.94382 46.2106C6.13483 46.2868 6.28762 46.3249 6.47863 46.363L6.74605 46.4011L8.77074 46.8963C9.53478 47.0867 10.1078 47.6962 10.1842 48.3819L10.6044 52.8006C10.6426 53.1815 10.528 53.5624 10.2606 53.8672C9.95501 54.21 9.49658 54.4004 9.03816 54.4004L5.33257 54.4766C4.79775 54.5147 4.26293 54.2862 3.88091 53.9052C3.57529 53.5624 3.38428 53.1434 3.42248 52.7244L3.6899 47.5057C3.7281 47.0867 3.91911 46.7439 4.26293 46.4773Z" fill="#5A81FA"/>
<path d="M32.4559 31.8499H28.9795C24.7009 31.8499 20.6515 34.1354 18.474 37.8303L17.7482 39.0493C17.5572 39.354 17.6718 39.7349 17.9774 39.9254C18.092 40.0016 18.2066 40.0016 18.3212 40.0016C18.5504 40.0016 18.7414 39.8873 18.856 39.6968L19.5819 38.4779C21.5302 35.1639 25.1211 33.145 28.9795 33.145H32.4559C36.6199 33.145 40.3637 35.4686 42.2356 39.1635C42.3884 39.4683 42.7704 39.6207 43.076 39.4683C43.3816 39.3159 43.5344 38.935 43.3816 38.6303C41.2805 34.4401 37.0783 31.8499 32.4559 31.8499Z" fill="#5A81FA"/>
</svg>
