<svg width="68" height="60" viewBox="0 0 68 60" fill="none" xmlns="http://www.w3.org/2000/svg">
<path d="M39.9156 16.3239C39.3125 10.4524 34.6389 5.71733 28.7969 5.07336C26.0455 4.77032 23.2187 5.41428 20.8442 6.85374C20.3166 7.19466 19.6381 7.19466 19.1482 6.89162C18.7336 6.62646 18.2813 6.39918 17.7913 6.17189C17.7159 6.13401 17.6782 6.13401 17.6406 6.09613C15.6053 5.187 13.3815 4.84608 11.1955 5.07336C5.35349 5.71733 0.679885 10.4145 0.0768384 16.3239C-0.0739232 17.6118 0.00145757 18.8997 0.26529 20.1876C0.491433 21.3241 0.868337 22.3847 1.396 23.4075C1.69753 23.9757 2.63977 25.6046 4.29814 28.2183C5.61731 30.3396 7.84105 31.5897 10.2909 31.6654L10.894 34.9989C11.007 35.6429 11.4593 36.1353 12.0247 36.3626L12.5524 39.9234L11.5724 40.037C11.2332 40.0749 10.9694 40.3779 11.0071 40.7567C11.0447 41.0598 11.3086 41.325 11.6478 41.325C11.6855 41.325 11.6855 41.325 11.7232 41.325L12.7408 41.2113L13.08 43.5978L12.1001 43.7114C11.7609 43.7493 11.497 44.0523 11.5347 44.4311C11.5724 44.7342 11.8362 44.9993 12.1754 44.9993C12.2131 44.9993 12.2131 44.9993 12.2508 44.9993L13.2685 44.8857L13.6454 47.3101L12.6277 47.4237C12.2885 47.4616 12.0247 47.7646 12.0624 48.1434C12.1 48.4465 12.3639 48.7116 12.7031 48.7116C12.7408 48.7116 12.7408 48.7116 12.7785 48.7116L13.8338 48.598L14.1731 50.7951L13.1931 50.9087C12.8539 50.9466 12.59 51.2496 12.6277 51.6284C12.6654 51.9315 12.9293 52.1966 13.2685 52.1966C13.3062 52.1966 13.3061 52.1966 13.3438 52.1966L14.3615 52.083L14.663 54.1664L13.6831 54.28C13.3438 54.3179 13.08 54.621 13.1177 54.9998C13.1554 55.3407 13.4192 55.568 13.7584 55.568C13.7961 55.568 13.7961 55.568 13.8338 55.568L14.8515 55.4543V55.4922C15.0776 57.0074 15.9445 58.3333 17.226 59.1666C18.0928 59.7348 19.0728 60 20.0527 60C21.0327 60 22.0126 59.7348 22.8795 59.1666C24.161 58.3333 25.0279 57.0074 25.254 55.4922L25.4424 54.2043L26.4978 54.0906C26.837 54.0528 27.1008 53.7497 27.0632 53.3709C27.0255 53.03 26.7239 52.7648 26.347 52.8027L25.6309 52.8785L25.9701 50.6057L27.0632 50.4541C27.4024 50.4162 27.6662 50.1132 27.6285 49.7344C27.5908 49.3935 27.2893 49.1283 26.9124 49.1662L26.1963 49.2419L26.5355 46.9691L27.6285 46.8176C27.9677 46.7797 28.2316 46.4767 28.1939 46.0979C28.1562 45.757 27.8546 45.4918 27.4777 45.5297L26.7239 45.6054L27.1008 43.1053L28.1939 42.9538C28.5331 42.9159 28.7969 42.6129 28.7592 42.2341C28.7215 41.8931 28.42 41.628 28.0431 41.6659L27.327 41.7416L27.7039 39.2794L28.6839 39.1658C29.0231 39.1279 29.2869 38.8248 29.2492 38.446C29.2115 38.1051 28.91 37.8399 28.5331 37.8778L27.8923 37.9536L28.1562 36.2868C28.7215 36.0596 29.1738 35.5671 29.2869 34.9231L29.8899 31.5139H30.1161C32.7921 31.5139 35.2043 30.0366 36.4858 27.6501C37.428 25.8697 38.4457 23.9378 38.7472 23.3696C39.2748 22.3847 39.6517 21.2862 39.8779 20.1876C39.991 19.0134 40.0663 17.6876 39.9156 16.3239ZM23.9348 55.1513C23.7464 56.2877 23.1057 57.3105 22.1257 57.9166C20.8066 58.7499 19.1482 58.7499 17.829 57.9166C16.8491 57.3105 16.2083 56.2877 16.0198 55.1513L24.0479 54.2043L23.9348 55.1513ZM24.2741 52.9164L15.8691 53.9012L15.5676 51.7799L24.6133 50.6435L24.2741 52.9164ZM24.8017 49.3556L15.3791 50.5299L15.0399 48.3328L25.141 47.0828L24.8017 49.3556ZM25.3294 45.7569L14.8515 47.0449L14.4746 44.6205L25.7063 43.219L25.3294 45.7569ZM25.8948 41.9689L14.2861 43.4084L13.9469 41.0219L26.2717 39.5067L25.8948 41.9689ZM13.7584 39.7718L13.2685 36.4762H26.7239L26.4601 38.1809L13.7584 39.7718ZM27.8923 34.7716C27.8546 35.0368 27.6285 35.2262 27.3647 35.2262H12.59C12.3262 35.2262 12.1 35.0368 12.0624 34.7716L11.497 31.6654L28.42 31.5897L27.8923 34.7716ZM38.4834 20.0361C38.2572 21.021 37.918 21.968 37.4657 22.8772C37.1642 23.4454 36.1465 25.3773 35.2043 27.1577C34.1489 29.1274 32.1513 30.3396 29.9653 30.3396L10.4417 30.4154C10.4417 30.4154 10.4417 30.4154 10.404 30.4154C8.33104 30.4154 6.40883 29.3547 5.31581 27.5743C3.73282 24.9985 2.75287 23.3696 2.48903 22.8393C2.03675 21.9301 1.69751 20.9453 1.47136 19.9604C1.24522 18.824 1.16983 17.6497 1.32059 16.4754C1.84826 11.1721 6.06962 6.9295 11.3463 6.3613C11.7609 6.32342 12.1378 6.28553 12.5524 6.28553C14.1353 6.28553 15.7183 6.62646 17.1506 7.27042C17.1883 7.27042 17.226 7.30831 17.226 7.30831C17.2637 7.30831 17.3013 7.34619 17.3013 7.34619C17.7159 7.53559 18.1305 7.76287 18.5075 7.99015C18.6205 8.06591 18.6959 8.10379 18.8089 8.14167C17.7913 8.93716 16.736 10.1872 16.3214 11.9297C16.246 12.2706 16.4722 12.6116 16.8114 12.6873C16.8491 12.6873 16.8867 12.6873 16.9621 12.6873C17.2636 12.6873 17.5275 12.4979 17.5652 12.1949C18.0929 9.80841 20.4673 8.4826 21.0704 8.17955C21.2211 8.10379 21.3719 8.02803 21.5227 7.95227C23.6333 6.66433 26.1586 6.09613 28.6839 6.3613C33.9605 6.9295 38.1441 11.1721 38.7095 16.4754C38.7849 17.6497 38.7472 18.8618 38.4834 20.0361Z" fill="#5A81FA"/>
</svg>
