<svg width="68" height="60" viewBox="0 0 68 60" fill="none" xmlns="http://www.w3.org/2000/svg">
<path d="M40.1228 40.8708C38.7854 39.5333 37.0021 38.8038 35.1378 38.8038C35.1378 38.8038 35.1379 38.8038 35.0974 38.8038H33.9626C33.8004 38.3175 33.5978 37.7906 33.3546 37.3448L29.6261 30.1308C29.5045 29.8876 29.4234 29.6039 29.3018 29.3608C30.8419 28.7123 31.9362 27.8207 32.463 26.767C33.5168 26.078 38.9881 21.9847 38.7449 13.9196C38.6233 9.94783 37.4075 6.82713 35.0974 4.71967C31.8551 1.72059 27.2754 1.43693 24.8032 1.55851C23.871 1.59904 22.9794 1.4369 22.0472 1.07214C20.0614 0.30211 16.2518 -0.792148 12.7663 0.869503C10.1726 2.08535 8.26777 4.59811 7.13298 8.28616C6.52506 10.3126 6.64665 12.6227 7.53827 14.6491C8.91622 17.7697 9.5241 20.3636 9.32146 21.9847C9.28093 22.1063 9.24043 22.2684 9.24043 22.39C8.95673 24.5379 10.6994 26.7265 13.9416 28.3071C13.5363 28.915 13.1716 29.5634 12.9284 30.2929L9.44307 37.5474C9.24043 37.9527 9.07829 38.3986 8.91618 38.8038H7.09242C3.20172 38.8038 0 41.965 0 45.8963V56.8388C0 58.5815 1.4185 60 3.16121 60H39.0286C40.7713 60 42.1898 58.5815 42.1898 56.8388V45.8963C42.1898 43.9914 41.4602 42.2082 40.1228 40.8708ZM8.79458 14.0817C8.02454 12.339 7.903 10.3936 8.42986 8.69144C9.48359 5.36814 11.1452 3.13908 13.3743 2.08535C16.3734 0.666863 19.8182 1.63958 21.5609 2.32855C21.6015 2.32855 21.642 2.36907 21.6825 2.36907C19.413 3.38227 16.576 5.6113 16.0086 10.5557C15.9681 10.9205 16.2518 11.2447 16.6165 11.2853C16.657 11.2853 16.657 11.2853 16.6976 11.2853C17.0218 11.2853 17.346 11.0421 17.3865 10.6773C18.1565 3.50386 24.3574 2.89592 24.6411 2.85539C24.7222 2.85539 24.8032 2.85539 24.8842 2.85539C27.1133 2.73381 31.2877 2.97698 34.1652 5.65184C36.1916 7.51613 37.2453 10.3126 37.3669 13.9196C37.529 19.6746 34.5299 23.2005 32.7872 24.7406C32.3819 21.6604 27.8833 18.7424 21.8852 17.8913C18.805 17.4455 15.8465 17.6482 13.4959 18.3777C12.3206 18.7829 11.3478 19.2693 10.6183 19.9177C10.3346 18.0129 9.52408 15.7839 8.79458 14.0817ZM10.5779 22.552C10.74 21.3767 11.9558 20.3635 13.9012 19.7151C16.0491 19.0261 18.805 18.864 21.6825 19.2693C27.3159 20.0798 31.8146 22.9168 31.4498 25.4701C31.2877 26.5238 30.2745 27.4965 28.5723 28.1449C26.9107 25.8348 24.2764 24.4164 21.3178 24.4164C18.8051 24.4164 16.495 25.4701 14.8333 27.2128C11.9964 25.9159 10.3752 24.1326 10.5779 22.552ZM14.1443 30.7793C14.3874 30.0497 14.7522 29.4013 15.198 28.8339C15.4007 28.5097 15.7249 28.1855 15.968 27.9423C17.346 26.5643 19.2508 25.7538 21.2773 25.7538C23.871 25.7538 26.1811 27.0507 27.5591 29.1581C27.5591 29.1581 27.7213 29.3608 27.8023 29.5229C28.005 29.8876 28.2076 30.2524 28.3697 30.6576L32.1388 37.9122C32.9088 39.4117 33.3141 41.0734 33.3141 42.735C33.3141 47.4363 29.5045 51.2865 24.7627 51.2865H18.1566C13.4553 51.2865 9.60514 47.4768 9.60514 42.735V42.6134C9.60514 41.0734 9.96989 39.4928 10.6183 38.0743L14.1443 30.7793ZM40.8523 56.7983C40.8523 57.7709 40.0417 58.5815 39.069 58.5815H3.20168C2.22901 58.5815 1.41848 57.7709 1.41848 56.7983V45.8557C1.41848 42.6945 3.97179 40.1412 7.13298 40.1412H8.55147C8.38936 40.9518 8.26769 41.8029 8.26769 42.654V42.7756C8.26769 48.2469 12.6853 52.6644 18.1566 52.6644H24.7627C30.234 52.6644 34.6515 48.2469 34.6515 42.7756C34.6515 41.8839 34.53 41.0329 34.3678 40.1412H35.1378C36.6779 40.1412 38.0964 40.7491 39.1906 41.8029C40.2849 42.8971 40.8928 44.3156 40.8928 45.8557V56.7983H40.8523Z" fill="#5A81FA"/>
</svg>
