<svg width="68" height="60" viewBox="0 0 68 60" fill="none" xmlns="http://www.w3.org/2000/svg">
<path d="M57.2046 12.8283C55.2123 10.8154 52.7689 9.48604 50.288 9.10624C47.7318 8.72643 45.4764 9.37209 43.9352 10.9293C43.6345 11.2331 43.3714 11.537 43.1458 11.9168C34.8384 14.8413 11.5324 27.1469 0.0673476 50.0871C-0.0830135 50.3909 0.0297539 50.7328 0.292886 50.8847C0.556018 51.0746 0.894329 51.0366 1.11987 50.7708C1.30782 50.5809 17.9603 31.6666 38.8229 20.4624C27.7714 41.5035 9.50251 58.7467 9.27697 58.9366C9.23938 58.9745 9.20179 59.0125 9.1642 59.0505C9.1642 59.0885 9.1266 59.0885 9.1266 59.0885C9.08901 59.1264 9.08902 59.1644 9.08902 59.2404C9.08902 59.2784 9.08902 59.2784 9.05142 59.3164C9.05142 59.3543 9.05142 59.3923 9.05142 59.4683C9.05142 59.5062 9.05142 59.5442 9.05142 59.5442C9.05142 59.5822 9.08901 59.6202 9.1266 59.6582C9.1266 59.6961 9.12661 59.6962 9.1642 59.7341C9.20179 59.8101 9.27697 59.8481 9.31456 59.8861C9.35215 59.8861 9.35214 59.924 9.38974 59.924C9.46492 59.962 9.57769 60 9.69046 60C9.80323 60 9.87841 59.962 9.99118 59.924C10.8933 59.4303 11.7955 58.9365 12.6977 58.4048C13.1112 58.1769 13.4871 57.949 13.9006 57.6832C14.1637 57.5313 14.4268 57.3414 14.69 57.1894C29.7637 47.7323 40.0258 33.4137 44.6494 22.9311C45.0253 23.3869 45.4012 23.8426 45.8147 24.2604C49.4234 27.9445 54.4981 29.1599 57.8812 27.1089C58.0692 26.995 58.1443 26.8051 58.1819 26.6152C58.1819 26.4253 58.1068 26.1974 57.9564 26.0835C57.806 25.9695 57.6557 25.8176 57.5053 25.6657C53.7087 22.2854 52.5434 19.6268 52.9193 19.247C52.9945 19.1711 53.5583 19.0191 55.0995 19.7408C56.528 20.4244 58.1819 21.5638 59.8735 23.083C60.0615 23.2349 60.287 23.2729 60.4749 23.197C60.7005 23.121 60.8508 22.9311 60.8884 22.7032C61.4147 19.5129 60.0615 15.7148 57.2046 12.8283ZM13.7126 56.3539C19.9526 50.0111 32.8837 35.7305 40.928 19.209C40.9656 19.171 40.9656 19.0951 40.9656 19.0571C41.755 17.4619 42.5068 15.8288 43.221 14.1956C43.4089 13.7398 43.8224 13.398 44.3111 13.2841C44.4239 13.2461 44.5742 13.2461 44.687 13.2461C45.0629 13.2461 45.4388 13.36 45.702 13.6259C46.1906 14.0437 46.3786 14.7273 46.1906 15.373C43.7097 22.9311 33.3347 44.0482 13.7126 56.3539ZM3.60083 46.2891C14.7651 27.6786 33.5603 17.0821 42.0933 13.6639L42.0557 13.7019C41.3791 15.297 40.6273 16.9302 39.8379 18.4874C23.674 26.8051 9.76564 39.9463 3.60083 46.2891ZM55.5506 18.6393C53.7463 17.8037 52.5058 17.7278 51.8668 18.4494C50.5511 19.9686 53.22 23.6527 56.3776 26.4633C53.5207 27.5647 49.6113 26.3873 46.6793 23.3869C46.0779 22.7792 45.5516 22.1335 45.1005 21.4119C46.153 19.1331 46.9048 17.1581 47.3935 15.7148C47.7694 14.5754 47.4311 13.36 46.5289 12.6004C46.0027 12.1447 45.3636 11.9168 44.7246 11.9168C44.7622 11.8788 44.7998 11.8028 44.875 11.7649C46.153 10.5115 47.995 9.97979 50.1376 10.3216C52.3554 10.6634 54.5357 11.8788 56.34 13.7019C58.5578 15.9427 59.7983 18.7912 59.7231 21.3359C58.2571 20.1965 56.8287 19.247 55.5506 18.6393Z" fill="#5A81FA"/>
</svg>
