<svg width="68" height="60" viewBox="0 0 68 60" fill="none" xmlns="http://www.w3.org/2000/svg">
<path d="M36.5761 42.0528C36.2353 41.9392 35.8945 42.1285 35.7809 42.4693C35.4023 43.7188 34.6451 44.476 33.4713 44.7789C33.1306 44.8547 32.9412 45.1954 33.0169 45.5362C33.0926 45.8391 33.3577 46.0285 33.6227 46.0285C33.6606 46.0285 33.7363 46.0285 33.7742 46.0285C35.3644 45.6498 36.4625 44.5518 36.9925 42.8858C37.1061 42.5071 36.9169 42.1285 36.5761 42.0528Z" fill="#5A81FA"/>
<path d="M52.2515 4H5.14946C2.30971 4 0 6.30966 0 9.14942V54.8506C0 57.6903 2.30971 60 5.14946 60H52.2515C55.0913 60 57.401 57.6903 57.401 54.8506V9.14942C57.401 6.30966 55.0913 4 52.2515 4ZM56.1515 54.8884C56.1515 57.0467 54.4097 58.7883 52.2515 58.7883H5.14946C2.99125 58.7883 1.24951 57.0467 1.24951 54.8884V9.18727C1.24951 7.02905 2.99125 5.28737 5.14946 5.28737H52.2515C54.4097 5.28737 56.1515 7.02905 56.1515 9.18727V54.8884Z" fill="#5A81FA"/>
<path d="M47.3672 9.6794C49.3361 9.56581 50.6613 9.56579 51.2292 10.1337C51.6836 10.5881 51.7972 11.6105 51.6457 13.39C51.6079 13.7308 51.8729 14.0337 52.2137 14.0715C52.2516 14.0715 52.2515 14.0715 52.2894 14.0715C52.6302 14.0715 52.8952 13.8065 52.9331 13.5036C53.1224 11.2697 52.8952 10.0202 52.1758 9.26291C51.2292 8.27846 49.7146 8.3163 47.3293 8.42989C46.9885 8.42989 46.7235 8.73281 46.7235 9.11145C46.7235 9.41435 47.0264 9.6794 47.3672 9.6794Z" fill="#5A81FA"/>
<path d="M5.18723 14.0717C5.18723 14.0717 5.22516 14.0717 5.26303 14.0717C5.6038 14.0339 5.86884 13.731 5.83098 13.3902C5.67952 11.6485 5.79306 10.5883 6.24742 10.1339C6.81537 9.56599 8.14057 9.56601 10.1095 9.6796C10.4881 9.71746 10.7532 9.41457 10.791 9.07379C10.791 8.73302 10.526 8.4301 10.1853 8.39223C7.79988 8.27864 6.28532 8.27867 5.33873 9.22526C4.58147 9.98253 4.39215 11.232 4.58147 13.4659C4.58147 13.8067 4.84645 14.0717 5.18723 14.0717Z" fill="#5A81FA"/>
<path d="M52.2137 49.9663C51.8729 50.0042 51.6079 50.3071 51.6457 50.6478C51.7972 52.3895 51.6836 53.4498 51.2292 53.9041C50.6613 54.4721 49.3361 54.472 47.3672 54.3585C47.0264 54.3585 46.7235 54.6235 46.6856 54.9643C46.6856 55.305 46.9507 55.608 47.2914 55.6458C47.8973 55.6837 48.4652 55.6837 48.9574 55.6837C50.3962 55.6837 51.4185 55.4943 52.1379 54.7749C52.8952 54.0177 53.0845 52.7682 52.8952 50.5343C52.8573 50.1935 52.5545 49.9663 52.2137 49.9663Z" fill="#5A81FA"/>
<path d="M10.0717 54.3962C8.10278 54.5098 6.77758 54.5099 6.20963 53.9419C5.75527 53.4875 5.64164 52.4652 5.79309 50.6857C5.83096 50.3449 5.56591 50.042 5.22514 50.0041C4.88437 49.9662 4.58144 50.2313 4.54358 50.572C4.35426 52.806 4.58145 54.0555 5.30085 54.8127C5.98239 55.5321 7.00472 55.7215 8.44353 55.7215C8.93576 55.7215 9.50367 55.6836 10.1095 55.6836C10.4503 55.6836 10.7153 55.3807 10.7153 55.002C10.7153 54.6234 10.4124 54.3584 10.0717 54.3962Z" fill="#5A81FA"/>
<path d="M41.574 24.3705L34.7207 12.5192C34.6071 12.3678 34.4557 12.2542 34.2664 12.2163C34.077 12.1784 33.8878 12.2542 33.7363 12.3678C31.0859 14.8667 26.2772 14.8667 23.6268 12.3678C23.4753 12.2163 23.286 12.1784 23.0967 12.2163C22.9073 12.2542 22.718 12.3678 22.6423 12.5192C20.4462 16.3056 16.6978 22.8181 13.025 29.1791C9.76879 34.8208 6.58824 40.3488 4.58148 43.7944C4.24071 44.4002 4.16493 45.1575 4.42997 45.8012C4.69502 46.4827 5.22512 46.9749 5.8688 47.2021C13.5551 50.4205 21.1657 52.0108 28.7384 52.0108C36.311 52.0108 43.8837 50.4205 51.5321 47.2399C52.2137 47.0128 52.7437 46.5206 53.0088 45.839C53.2738 45.1575 53.1981 44.4381 52.8573 43.8322L41.574 24.3705ZM26.883 29.2927C26.9209 29.2927 26.9588 29.2927 27.0345 29.2927C27.3374 29.2927 27.6024 29.1034 27.6403 28.8005C27.8674 27.816 28.9655 27.3238 29.0034 27.2859C29.0412 27.2859 29.0412 27.2481 29.0791 27.2481C29.117 27.2102 29.1926 27.2102 29.2305 27.1723C30.1014 26.6423 31.048 26.4529 32.0703 26.5665C34.1906 26.7937 35.8566 28.4976 36.0838 30.58C36.1217 31.0723 36.1217 31.5267 36.0081 32.0189C35.9324 32.3975 35.7809 32.814 35.5916 33.1548C34.9479 34.4043 34.5314 35.5781 34.3043 36.6761L33.3198 41.8634C33.2819 42.1284 33.0926 42.3177 32.8275 42.4313C32.5625 42.507 32.2596 42.4313 32.1082 42.242C32.0324 42.1663 31.9946 42.0527 31.9567 41.9012C31.9567 41.8255 30.8966 35.6916 28.3597 35.6916C25.785 35.6916 24.7248 41.8633 24.7248 41.9391C24.6869 42.0905 24.6491 42.2041 24.5734 42.2799C24.3841 42.4692 24.119 42.5449 23.8539 42.4692C23.5889 42.3934 23.3995 42.1663 23.3617 41.9012V41.8634L22.3773 36.7518C22.1501 35.6159 21.7336 34.4421 21.0899 33.1548C20.9006 32.7761 20.7492 32.3975 20.6734 32.0189C20.5977 31.5645 20.5599 31.1102 20.5977 30.6179C20.8249 28.4976 22.4908 26.7937 24.6112 26.6044C24.7626 26.6044 24.952 26.5665 25.1034 26.5665C25.7471 26.5665 26.3529 26.718 26.9209 26.9452C26.9209 26.9452 26.9587 26.9452 26.9587 26.983H26.9966C27.0723 27.0209 27.1102 27.0588 27.1859 27.0966C26.8452 27.4753 26.5043 27.9675 26.3908 28.5733C26.3529 28.8762 26.5422 29.217 26.883 29.2927ZM37.3711 30.4665C37.1061 27.7782 34.9479 25.5821 32.2218 25.3171C30.9723 25.1656 29.6849 25.4685 28.5868 26.1122C28.4733 26.1879 28.3219 26.2258 28.1704 26.15C27.9811 26.0365 27.7918 25.9228 27.6025 25.8471C27.5646 25.8093 27.5267 25.8093 27.4509 25.7714C26.5044 25.3549 25.482 25.2035 24.4976 25.3171C21.8093 25.62 19.6511 27.7782 19.3482 30.4665C19.2725 31.0344 19.3103 31.6024 19.4239 32.1325H18.4773C18.5909 31.5645 18.6288 31.0344 18.553 30.4665C18.4016 28.8005 17.4929 27.2859 16.1298 26.3394C17.4172 24.1054 18.6667 21.9093 19.8405 19.9026C22.3394 21.6443 25.5199 22.5152 28.7005 22.5152C31.881 22.5152 35.0237 21.6443 37.5227 19.9026L41.0818 26.0743C39.5294 27.0209 38.4692 28.6112 38.2799 30.4665C38.2042 31.0344 38.242 31.6024 38.3556 32.1325H37.2576C37.3712 31.6024 37.409 31.0344 37.3711 30.4665ZM39.6051 31.981C39.5294 31.5267 39.4916 31.0723 39.5294 30.58C39.6809 29.1791 40.5138 27.8917 41.7254 27.1723L46.6856 35.7674C44.5652 36.6382 43.6565 41.8255 43.6565 41.8634C43.6186 42.0148 43.5808 42.1284 43.5051 42.2041C43.3158 42.3935 43.0507 42.4692 42.7856 42.3935C42.5206 42.3177 42.3313 42.0906 42.2934 41.7877L41.309 36.6761C41.0818 35.5402 40.6653 34.3664 40.0216 33.0791C39.8323 32.7762 39.7187 32.3975 39.6051 31.981ZM23.3617 13.8066C26.3529 16.0784 31.048 16.0784 34.0013 13.8066L36.879 18.7667C32.2218 22.0229 25.1035 22.0229 20.4841 18.7667C21.5822 16.9114 22.5665 15.2075 23.3617 13.8066ZM14.123 29.8228C14.5774 29.0276 15.0317 28.2325 15.524 27.4374C16.5463 28.1947 17.19 29.3306 17.3414 30.58C17.3793 31.0723 17.3793 31.5267 17.2657 32.0189C17.19 32.3975 17.0385 32.814 16.8492 33.1548C16.2055 34.4043 15.7891 35.5781 15.5619 36.6761L14.5774 41.8634C14.5395 42.1284 14.3502 42.3177 14.0851 42.4313C13.8201 42.507 13.5172 42.4313 13.3658 42.242C13.2901 42.1663 13.2522 42.0527 13.2144 41.9012C13.0629 40.9546 12.2299 37.1683 10.6017 36.0324C11.6998 34.0256 12.9114 31.9431 14.123 29.8228ZM51.7971 45.3847C51.6836 45.6876 51.4185 45.9147 51.0778 46.0662C36.046 52.3515 21.3928 52.3515 6.32314 46.0662C6.02024 45.9526 5.75527 45.7254 5.64168 45.4225C5.52809 45.1196 5.56593 44.7789 5.71739 44.4759C6.81542 42.5449 8.32998 39.9702 9.99597 37.0926C10.8668 37.812 11.7376 40.4246 12.0027 42.0527C12.0405 42.4313 12.2299 42.7721 12.4571 43.075C12.8357 43.4915 13.3658 43.7187 13.9337 43.7187C14.123 43.7187 14.3124 43.6808 14.5017 43.6429C15.2211 43.4157 15.7891 42.8099 15.8648 42.0905L16.8492 36.9411C17.0385 35.9567 17.4172 34.8965 18.023 33.7606C18.0609 33.647 18.1365 33.5334 18.1744 33.4198H19.9162C19.954 33.5334 19.9919 33.647 20.0676 33.7227C20.6734 34.8965 21.0521 35.9567 21.2414 36.979L22.2258 42.0527C22.3394 42.8099 22.8695 43.4157 23.5889 43.6429C23.7782 43.6808 23.9675 43.7187 24.1569 43.7187C24.7248 43.7187 25.2549 43.4915 25.6335 43.075C25.8607 42.8099 26.0501 42.4692 26.0879 42.0527C26.4287 39.8566 27.6402 36.9033 28.4732 36.9033C29.2684 36.9033 30.5179 39.8945 30.8208 42.0527C30.8587 42.4313 31.048 42.8099 31.2752 43.075C31.7674 43.6429 32.5625 43.8701 33.3198 43.6429C34.0392 43.4157 34.6072 42.8099 34.6829 42.0905L35.6673 36.9411C35.8566 35.9567 36.2353 34.8965 36.8411 33.7606C36.879 33.647 36.9546 33.5334 36.9925 33.4198H38.8857C38.9235 33.5334 38.9615 33.647 39.0372 33.7227C39.643 34.8965 40.0216 35.9567 40.2109 36.979L41.1954 42.0527C41.309 42.8099 41.8391 43.4536 42.5585 43.6429C42.7478 43.6808 42.9371 43.7187 43.1265 43.7187C43.6944 43.7187 44.2245 43.4915 44.6031 43.075C44.8303 42.8099 45.0196 42.4692 45.0574 42.0527C45.3982 39.8566 46.6099 36.9033 47.4428 36.9033H47.4808L51.835 44.4381C51.8729 44.741 51.9107 45.0818 51.7971 45.3847Z" fill="#5A81FA"/>
<path d="M9.46584 12.86C9.46584 13.2008 9.76872 13.5037 10.1095 13.5037H17.6444C17.9851 13.5037 18.288 13.2386 18.288 12.86C18.288 12.5192 18.023 12.2163 17.6444 12.2163H10.1095C9.76872 12.2163 9.46584 12.5192 9.46584 12.86Z" fill="#5A81FA"/>
<path d="M10.1095 14.791C9.76872 14.791 9.46584 15.056 9.46584 15.4347C9.46584 15.7754 9.76872 16.0784 10.1095 16.0784H14.7667C15.1075 16.0784 15.4104 15.8133 15.4104 15.4347C15.4104 15.0939 15.1075 14.791 14.7667 14.791H10.1095Z" fill="#5A81FA"/>
</svg>
