<svg width="68" height="60" viewBox="0 0 68 60" fill="none" xmlns="http://www.w3.org/2000/svg">
<path d="M41.9672 31.6191C41.9298 31.6191 41.9298 31.6191 41.9672 31.6191H41.22C39.1651 31.6191 37.5212 33.2709 37.4838 35.2981L37.297 36.5369C37.2596 36.8748 37.297 37.1751 37.3717 37.4754C36.7739 38.1136 36.4377 38.9771 36.4377 39.9156L36.4003 40.9292C36.363 41.3421 36.4377 41.7551 36.5871 42.1305C36.1762 42.581 35.9146 43.1441 35.8025 43.7823C34.8311 43.97 34.0092 44.6082 33.5982 45.5092C33.3367 45.359 33.0752 45.2839 32.7763 45.2839H31.2444C30.8334 45.2839 30.4599 45.4341 30.161 45.6593C29.7873 45.2088 29.2643 44.946 28.6665 44.946H26.8358C26.3127 44.946 25.827 45.1713 25.4534 45.5467C25.0798 45.1713 24.5941 44.946 24.071 44.946H22.2403C21.6425 44.946 21.1194 45.2464 20.7458 45.6593C20.4469 45.3965 20.0733 45.2839 19.6623 45.2839H18.1305C17.8316 45.2839 17.5327 45.359 17.3086 45.5092C16.8602 44.5706 15.9636 43.8949 14.8801 43.7447C14.768 43.1441 14.5065 42.581 14.0955 42.1305C14.2449 41.7551 14.2823 41.3421 14.2823 40.9292L14.2449 39.9156C14.2449 38.9771 13.8713 38.1136 13.3109 37.4379C13.4229 37.1376 13.423 36.7997 13.3856 36.4994L13.1988 35.2605C13.1614 33.2334 11.5175 31.5815 9.46265 31.5815H8.75277C8.67805 31.5815 8.60334 31.5816 8.52861 31.6191C8.37917 31.6191 8.19234 31.6566 8.04289 31.6566C8.00553 31.6566 7.9682 31.6566 7.93084 31.6566C4.86719 32.1447 2.47601 34.6599 2.47601 37.7007V39.1272C2.47601 50.6147 12.4142 59.9999 24.6688 59.9999H26.2006C38.4552 59.9999 48.3934 50.6522 48.3934 39.1272V37.7007C48.3934 34.3971 45.5165 31.6566 41.9672 31.6191ZM26.2006 58.7985H24.6688C13.1241 58.7985 3.74632 50.014 3.74632 39.2023V37.7758C3.74632 36.6495 4.15729 35.5984 4.86716 34.735C4.79244 34.9978 4.79246 35.2605 4.79246 35.5609L4.68035 36.6871C4.60563 37.2877 4.8298 37.8508 5.24078 38.3389C5.46495 38.6017 5.76387 38.7894 6.06276 38.9395C5.91331 39.3525 5.8012 39.803 5.8012 40.2535L5.65175 42.581C5.61438 43.2192 5.87592 43.8198 6.36162 44.2703C6.73524 44.6082 7.25832 44.7959 7.78138 44.8334L7.74403 45.2839C7.63194 46.5227 7.93081 47.5363 8.60332 48.2872C9.6868 49.4885 11.5175 49.6386 12.5263 49.6762V49.7888C12.5263 51.2153 13.6845 52.3416 15.0669 52.3416C15.8141 52.3416 16.4493 52.0037 16.8976 51.5157C17.0471 51.816 17.2338 52.0788 17.4206 52.3416L17.7569 52.717C18.0558 53.0548 18.4668 53.2425 18.8777 53.2425C19.2887 53.2425 19.6997 53.0548 19.9986 52.717L20.3349 52.3416C20.4843 52.1539 20.5964 51.9662 20.7085 51.7785C20.9326 52.2665 21.1568 52.717 21.4931 53.1299L21.8667 53.5804C22.1656 53.9558 22.6513 54.181 23.0996 54.181C23.5853 54.181 24.0336 53.9558 24.3325 53.5804L24.7061 53.1299C24.9677 52.792 25.1919 52.4166 25.3787 52.0412C25.5655 52.4166 25.7897 52.792 26.0512 53.1299L26.4248 53.5804C26.7237 53.9558 27.2094 54.181 27.6577 54.181C28.1434 54.181 28.5918 53.9558 28.8907 53.5804L29.2643 53.1299C29.6005 52.717 29.862 52.2665 30.0489 51.7785C30.1609 51.9662 30.273 52.1539 30.4225 52.3416L30.7587 52.717C31.0576 53.0548 31.4686 53.2425 31.8796 53.2425C32.2906 53.2425 32.7015 53.0548 33.0004 52.717L33.3367 52.3416C33.5609 52.0788 33.7103 51.816 33.8597 51.5157C34.3081 52.0037 34.9806 52.3416 35.6904 52.3416C37.1102 52.3416 38.231 51.1778 38.231 49.7888V49.6386C39.2398 49.6011 40.9211 49.4134 41.9672 48.2496C42.6397 47.4988 42.9386 46.4852 42.8265 45.2464L42.7891 44.7959C43.3122 44.7583 43.7979 44.5706 44.2089 44.2328C44.6946 43.7823 44.9935 43.1816 44.9188 42.5434L44.7693 40.2535C44.7693 39.7654 44.6572 39.3149 44.5078 38.902C44.8067 38.7518 45.1056 38.5641 45.3297 38.3013C45.7407 37.8508 45.9649 37.2502 45.8902 36.6495L45.7781 35.5984C45.7781 35.1855 45.7034 34.7725 45.5539 34.3596C46.4506 35.223 47.011 36.4243 47.011 37.7382V39.1648C47.1605 50.014 37.7453 58.7985 26.2006 58.7985ZM16.3745 47.3111V49.1881V49.8639C16.3745 50.5771 15.8141 51.1403 15.1042 51.1403C14.3944 51.1403 13.7966 50.5396 13.7966 49.8263V45.8095C13.7966 45.3965 14.1328 45.0587 14.5438 45.0587C15.5526 45.0587 16.3745 45.8846 16.3745 46.8982V47.3111ZM18.1679 46.5978H19.6997C19.9986 46.5978 20.2228 46.9357 20.2228 47.3111V49.1881C20.2228 50.0891 19.9239 50.9526 19.4008 51.5908L19.0646 51.9662C18.9525 52.0788 18.8404 52.0788 18.7657 51.9662L18.4294 51.5908C17.9064 50.9526 17.6074 50.0891 17.6074 49.1881V47.3111C17.6074 46.8982 17.869 46.5978 18.1679 46.5978ZM31.2071 46.5978H32.7389C33.0378 46.5978 33.2619 46.9357 33.2619 47.3111V49.1881C33.2619 50.0891 32.9631 50.9526 32.44 51.5908L32.1037 51.9662C31.9917 52.0788 31.8796 52.0788 31.8048 51.9662L31.4686 51.5908C30.9456 50.9526 30.6466 50.0891 30.6466 49.1881V47.3111C30.6466 46.8982 30.9082 46.5978 31.2071 46.5978ZM34.5322 47.3111V46.8982C34.5322 45.8846 35.3542 45.0587 36.363 45.0587C36.7739 45.0587 37.1102 45.3965 37.1102 45.8095V49.8263C37.1102 50.5396 36.5124 51.1403 35.8025 51.1403C35.0927 51.1403 34.5322 50.5771 34.5322 49.8639V49.1881V47.3111ZM41.22 32.8955H41.9299H41.9672C43.4617 32.8955 44.6572 34.1343 44.6572 35.6735L44.7693 36.7997C44.8067 37.1376 44.6199 37.3628 44.5452 37.4754C44.3957 37.6256 44.2089 37.7382 44.0221 37.8133C43.3122 36.9123 42.1914 36.3117 40.9211 36.3117H40.2112C39.6508 36.3117 39.0904 36.4618 38.6047 36.6871L38.7541 35.4858C38.7541 35.4482 38.7541 35.4107 38.7541 35.4107C38.7168 34.0217 39.8376 32.8955 41.22 32.8955ZM37.6333 41.0794L37.6706 40.0282C37.6706 38.6767 38.7915 37.5505 40.1365 37.5505H40.8464C42.3408 37.5505 43.5737 38.7894 43.5737 40.3285L43.7232 42.656C43.7605 42.9939 43.5364 43.2192 43.4243 43.3318C43.2375 43.5195 42.9386 43.5946 42.6771 43.5946C42.3035 42.168 40.9958 41.1169 39.464 41.1169H38.8662C38.4178 41.1169 38.0069 41.2295 37.6333 41.3797C37.6706 41.2671 37.6333 41.192 37.6333 41.0794ZM38.9035 42.3557H39.5014C40.6596 42.3557 41.5936 43.2942 41.5936 44.4956L41.6683 45.3965C41.743 46.2975 41.5936 46.9732 41.1452 47.4237C40.4354 48.1745 39.2024 48.3623 38.3431 48.3998V45.7719C38.3431 44.9085 37.8201 44.1952 37.0728 43.8949C37.2597 43.0315 38.0442 42.3557 38.9035 42.3557ZM29.4137 47.3111V49.1881V49.4509C29.4137 50.5396 29.0401 51.5907 28.4049 52.3791L28.0313 52.8296C27.8819 53.0173 27.6203 53.0173 27.4709 52.8296L27.0973 52.3791C26.4621 51.5907 26.0885 50.5396 26.0885 49.4509V47.236C26.0885 46.7104 26.4248 46.2975 26.8358 46.2975H28.6665C29.0775 46.2975 29.4137 46.7104 29.4137 47.236V47.3111ZM24.8182 49.4134C24.8182 50.5021 24.4446 51.5532 23.8095 52.3416L23.4359 52.792C23.2864 52.9797 23.0249 52.9797 22.8755 52.792L22.5018 52.3416C21.8667 51.5532 21.4931 50.5021 21.4931 49.4134V49.1506V47.2736V47.1985C21.4931 46.6729 21.8293 46.26 22.2403 46.26H24.071C24.482 46.26 24.8182 46.6729 24.8182 47.1985V49.4134ZM12.5636 45.7719V48.3998C11.7417 48.3998 10.3219 48.2496 9.57471 47.4237C9.12637 46.9357 8.97696 46.26 9.05168 45.3965L9.12639 44.4205C9.12639 43.2567 10.0604 42.3182 11.2186 42.3182H11.8164C12.7131 42.3182 13.4977 43.069 13.6845 43.97C13.012 44.3454 12.5636 45.0211 12.5636 45.7719ZM11.779 41.0794H11.1813C9.61209 41.0794 8.3418 42.168 7.96819 43.557C7.6693 43.557 7.40777 43.4444 7.22096 43.2942C7.10887 43.1816 6.88469 42.9564 6.92205 42.6185L7.0715 40.2535C7.0715 38.7518 8.30445 37.513 9.79891 37.513H10.5087C11.8538 37.513 12.9746 38.6392 12.9746 40.0282L13.012 41.0418C13.012 41.1544 13.012 41.2295 12.9746 41.3421C12.6384 41.192 12.2274 41.0794 11.779 41.0794ZM10.5461 36.2741H9.83627C8.56597 36.2741 7.48247 36.8748 6.73524 37.7758C6.54843 37.7382 6.36161 37.6256 6.21217 37.4379C6.10008 37.3253 5.95065 37.1 5.98801 36.7622L6.10011 35.5984C6.10011 34.2845 7.03413 33.1958 8.2297 32.933C8.26706 32.933 8.3418 32.933 8.37916 32.8955C8.45388 32.8955 8.52859 32.8955 8.60332 32.8579C8.75276 32.8579 8.90224 32.8204 9.05168 32.8204H9.53736C10.8824 32.8204 12.0032 33.9466 12.0032 35.2981C12.0032 35.3356 12.0032 35.3732 12.0032 35.3732L12.1527 36.5745C11.6296 36.4243 11.1066 36.2741 10.5461 36.2741Z" fill="#5A81FA"/>
<path d="M49.5143 13.9376C49.178 13.4871 48.655 13.1868 48.0946 13.1117L38.5674 11.8728C29.5632 10.7091 20.447 10.7091 11.4428 11.8728L1.8783 13.1117C0.72009 13.2618 -0.101864 14.3505 0.0102206 15.5143L0.458587 19.1933C0.720117 21.3331 2.13983 23.0975 4.11999 23.8483V27.9027C4.11999 29.0665 5.05402 30.005 6.21223 30.005C6.99682 30.005 7.70669 29.7047 8.26711 29.2166C8.56601 30.0425 9.31326 30.6056 10.2099 30.6056C11.555 30.6056 12.7132 29.8924 13.423 28.8412C13.9087 29.4043 14.6186 29.7797 15.4406 29.7797H16.113C16.7108 29.7797 17.2713 29.5545 17.7196 29.2166C18.2053 30.5681 19.513 31.5442 21.0074 31.5442H22.7261C23.8469 31.5442 24.8556 30.981 25.4534 30.1176C26.0512 30.981 27.0226 31.5442 28.1435 31.5442H30.3478C31.7676 31.5442 32.9631 30.6056 33.3368 29.2917C33.7851 29.592 34.3081 29.8173 34.8686 29.8173H35.541C36.363 29.8173 37.0729 29.4419 37.5586 28.8788C38.2311 29.9299 39.4267 30.6432 40.7717 30.6432C41.6683 30.6432 42.453 30.0425 42.7145 29.2542C43.2749 29.7422 43.9848 30.0425 44.7694 30.0425C45.9276 30.0425 46.8616 29.104 46.8616 27.9403V23.4354V23.3978C48.244 22.4968 49.2154 21.0703 49.4396 19.4185L50 15.6269C50 14.9887 49.8505 14.388 49.5143 13.9376ZM40.7343 29.3292C39.3146 29.3292 38.1938 28.1655 38.1938 26.7765V24.1486V23.9985C38.1938 22.8723 39.1278 21.9337 40.2486 21.9337H40.6223C41.1453 21.9337 41.5936 22.3842 41.5936 22.9098V23.7732C41.5936 23.8108 41.5936 23.8108 41.5936 23.8483V26.7765C41.5936 26.814 41.5936 26.814 41.5936 26.8516V28.5034C41.5563 28.9539 41.1827 29.3292 40.7343 29.3292ZM35.541 28.5034H34.8686C34.1213 28.5034 33.4862 27.8652 33.4862 27.1144V24.1486C33.4862 23.548 33.7104 22.9473 34.1213 22.4969L34.7565 21.8211C34.8685 21.7085 35.018 21.6334 35.2048 21.6334C35.3916 21.6334 35.5411 21.7085 35.6532 21.8211L36.2883 22.4969C36.6993 22.9473 36.9235 23.548 36.9235 24.1486V26.7765V27.1144C36.9235 27.8652 36.2883 28.5034 35.541 28.5034ZM32.2159 27.1144V28.3532C32.2159 29.4043 31.3566 30.2678 30.3104 30.2678H28.1061C26.9853 30.2678 26.0886 29.3668 26.0886 28.2406V28.128V23.3603V23.06C26.0886 21.5208 27.3215 20.3195 28.816 20.3195H29.4511C30.983 20.3195 32.2159 21.5583 32.2159 23.06V24.1862V27.1144ZM22.6887 30.2302H20.97C19.6997 30.2302 18.691 29.2166 18.691 27.9403V27.0768V24.1111V23.2852C18.691 21.5959 20.0734 20.2069 21.7547 20.2069C23.4359 20.2069 24.8183 21.5959 24.8183 23.2852V28.0529C24.8183 29.2917 23.8843 30.2302 22.6887 30.2302ZM13.9834 26.739V24.1111C13.9834 23.5105 14.2076 22.9098 14.6186 22.4593L15.2538 21.7836C15.3658 21.671 15.5153 21.5959 15.7021 21.5959C15.8889 21.5959 16.0384 21.671 16.1504 21.7836L16.7856 22.4593C17.1965 22.9098 17.4207 23.5105 17.4207 24.1111V27.0768C17.4207 27.8652 16.7856 28.4658 16.0383 28.4658H15.3658C14.5812 28.4658 13.9834 27.8276 13.9834 27.0768V26.739ZM12.7505 26.739C12.7505 28.1655 11.5923 29.2917 10.2099 29.2917C9.7616 29.2917 9.38796 28.9163 9.38796 28.4658V26.739V23.8483V22.9098C9.38796 22.3842 9.83634 21.9337 10.3594 21.9337H10.733C11.8539 21.9337 12.7879 22.8723 12.7879 23.9985V24.1486V26.739H12.7505ZM6.17488 28.6911C5.72654 28.6911 5.35294 28.3157 5.35294 27.8652V23.3603C5.35294 22.8347 5.80127 22.3842 6.32433 22.3842H6.69795C7.48254 22.3842 8.1177 23.0224 8.1177 23.8108V26.739C8.1177 27.8276 7.221 28.6911 6.17488 28.6911ZM42.7892 23.7732C42.8266 23.0224 43.4617 22.3842 44.209 22.3842H44.5826C45.1056 22.3842 45.554 22.8347 45.554 23.3603V27.8652C45.554 28.3157 45.1804 28.6911 44.732 28.6911C43.6859 28.6911 42.8266 27.8652 42.7892 26.814V23.7732ZM44.5826 21.1454H44.209C43.5364 21.1454 42.9387 21.4082 42.4903 21.7836C42.1167 21.1078 41.4068 20.6574 40.5849 20.6574H40.2112C39.0904 20.6574 38.119 21.2205 37.5212 22.0839C37.4091 21.9337 37.2971 21.7836 37.185 21.6334L36.5498 20.9577C35.84 20.2069 34.5323 20.2069 33.8224 20.9577L33.1873 21.6334C32.6269 20.0942 31.1698 19.0056 29.4511 19.0056H28.816C27.3589 19.0056 26.0886 19.8315 25.3787 20.9952C24.5941 19.7939 23.2865 19.0056 21.7547 19.0056C19.9613 19.0056 18.3921 20.1318 17.757 21.7085C17.757 21.6709 17.7196 21.6709 17.7196 21.6334L17.0845 20.9577C16.7482 20.5823 16.2251 20.357 15.7394 20.357C15.2164 20.357 14.7307 20.5823 14.3944 20.9577L13.7593 21.6334C13.6472 21.7836 13.5351 21.9337 13.423 22.0839C12.8252 21.2205 11.8539 20.6574 10.733 20.6574H10.3594C9.53744 20.6574 8.82754 21.1078 8.45392 21.7836C7.96822 21.3706 7.37045 21.1454 6.7353 21.1454H6.36168C5.42765 21.1454 4.60569 21.746 4.3068 22.5719C2.92442 21.9337 1.95305 20.6198 1.76624 19.0431L1.31787 15.3641C1.24315 14.8761 1.61676 14.4256 2.10246 14.3505L11.6671 13.1117C20.5591 11.9479 29.5632 11.9479 38.4926 13.1117L48.0198 14.3505C48.244 14.3881 48.4681 14.5007 48.6176 14.6884C48.767 14.8761 48.8418 15.1389 48.8044 15.3641L48.244 19.1557C48.0572 20.3195 47.422 21.3706 46.488 22.0839C46.0023 21.5208 45.3298 21.1454 44.5826 21.1454Z" fill="#5A81FA"/>
</svg>
